<?xml version="1.0" encoding="utf-8"?>
<!-- Generator: Adobe Illustrator 16.0.0, SVG Export Plug-In . SVG Version: 6.00 Build 0)  -->
<!DOCTYPE svg PUBLIC "-//W3C//DTD SVG 1.1//EN" "http://www.w3.org/Graphics/SVG/1.1/DTD/svg11.dtd">
<svg version="1.1" id="Layer_1" xmlns="http://www.w3.org/2000/svg" xmlns:xlink="http://www.w3.org/1999/xlink" x="0px" y="0px"
	 width="26.425px" height="33.023px" viewBox="0 0 26.425 33.023" enable-background="new 0 0 26.425 33.023" xml:space="preserve">
<path fill="#606060" d="M13.426,32.187C9.312,28.032,5.24,23.921,1.125,19.766c0.354-0.353,0.759-0.756,1.239-1.235
	c3.674,3.729,7.302,7.413,10.931,11.098c3.752-3.797,7.399-7.488,11.062-11.193c0.579,0.657,0.953,1.08,1.268,1.438
	C21.658,23.876,17.574,27.999,13.426,32.187"/>
<path fill="#881200" d="M13.426,1.864C9.312,6.019,5.24,10.13,1.125,14.285c0.354,0.353,0.759,0.756,1.239,1.235
	c3.674-3.729,7.302-7.413,10.931-11.098c3.752,3.797,7.399,7.488,11.061,11.193c0.58-0.657,0.953-1.08,1.268-1.438
	C21.658,10.175,17.574,6.052,13.426,1.864"/>
</svg>
