<?xml version="1.0" encoding="utf-8"?>
<!-- Generator: Adobe Illustrator 16.0.0, SVG Export Plug-In . SVG Version: 6.00 Build 0)  -->
<!DOCTYPE svg PUBLIC "-//W3C//DTD SVG 1.1//EN" "http://www.w3.org/Graphics/SVG/1.1/DTD/svg11.dtd">
<svg version="1.1" id="Layer_1" xmlns="http://www.w3.org/2000/svg" xmlns:xlink="http://www.w3.org/1999/xlink" x="0px" y="0px"
	 width="50px" height="50px" viewBox="0 0 50 50" enable-background="new 0 0 50 50" xml:space="preserve">
<path fill="#FFFFFF" d="M17.958,31.942c0.358,1.01,0.644,2,1.47,2.6c0.448,0.326,1.113,0.491,1.68,0.494
	c6.31,0.031,12.619,0.019,18.93,0.019c0.863,0,1.73-0.005,2.594,0.002c0.743,0.006,1.211,0.428,1.197,1.063
	c-0.016,0.608-0.464,1.008-1.185,1.01c-7.283,0.001-14.564,0.006-21.847-0.007c-1.791-0.003-3.163-0.858-3.885-2.455
	c-0.661-1.463-1.173-3.011-1.574-4.567c-1.569-6.101-3.05-12.224-4.612-18.325c-0.233-0.907-0.676-1.772-1.112-2.606
	c-0.401-0.768-1.112-1.1-1.992-1.092C5.936,8.093,4.25,8.083,2.565,8.081C1.76,8.078,1.285,7.679,1.292,7.024
	C1.3,6.393,1.76,6.009,2.531,6.006C4.196,6,5.86,6.01,7.523,6.002c1.834-0.008,3.268,0.763,4.046,2.41
	c0.629,1.335,1.022,2.78,1.516,4.18c0.07,0.202,0.11,0.416,0.178,0.674h0.769h33.451c1.36,0,1.718,0.445,1.392,1.751
	c-1.294,5.19-2.592,10.381-3.891,15.57c-0.311,1.236-0.474,1.358-1.788,1.358c-8.125,0-16.25,0-24.375-0.003H17.958z M17.396,29.83
	h25.634c1.206-4.833,2.403-9.63,3.607-14.453H13.779C14.993,20.229,16.195,25.034,17.396,29.83"/>
<path fill="#FFFFFF" d="M26.191,42.346c-0.012,2.289-1.893,4.14-4.194,4.124c-2.287-0.019-4.121-1.899-4.107-4.209
	c0.015-2.249,1.9-4.103,4.16-4.091C24.351,38.182,26.202,40.05,26.191,42.346 M19.969,42.276c-0.022,1.133,0.884,2.086,2.012,2.117
	c1.128,0.03,2.094-0.876,2.133-2c0.04-1.158-0.894-2.136-2.048-2.146C20.924,40.236,19.993,41.139,19.969,42.276"/>
<path fill="#FFFFFF" d="M38.614,46.47c-2.296-0.02-4.139-1.896-4.12-4.195c0.016-2.292,1.9-4.129,4.206-4.105
	c2.285,0.025,4.117,1.915,4.094,4.227C42.769,44.635,40.869,46.487,38.614,46.47 M40.716,42.342
	c0.013-1.131-0.902-2.076-2.034-2.097s-2.084,0.891-2.112,2.018c-0.03,1.159,0.908,2.126,2.065,2.129
	C39.771,44.392,40.7,43.479,40.716,42.342"/>
</svg>
