<?xml version="1.0" encoding="utf-8"?>
<!-- Generator: Adobe Illustrator 16.0.0, SVG Export Plug-In . SVG Version: 6.00 Build 0)  -->
<!DOCTYPE svg PUBLIC "-//W3C//DTD SVG 1.1//EN" "http://www.w3.org/Graphics/SVG/1.1/DTD/svg11.dtd">
<svg version="1.1" id="Layer_1" xmlns="http://www.w3.org/2000/svg" xmlns:xlink="http://www.w3.org/1999/xlink" x="0px" y="0px"
	 width="343px" height="161px" viewBox="0 0 343 161" enable-background="new 0 0 343 161" xml:space="preserve">
<g>
	<defs>
		<rect id="SVGID_1_" x="-17" y="-16" width="372" height="200"/>
	</defs>
	<clipPath id="SVGID_2_">
		<use xlink:href="#SVGID_1_"  overflow="visible"/>
	</clipPath>
	<path clip-path="url(#SVGID_2_)" d="M13.403,142.706c2.521-0.08,4.317,1.049,4.317,3.151c0,1.109-0.989,2.24-1.512,2.765
		c1.313,0.605,2.28,1.436,2.28,3.353c0,2.16-1.292,4.117-4.965,4.117h-3.049v-11.426l-0.262-1.86L13.403,142.706z M12.289,148.158
		h1.456c0.767,0,1.433,0.141,1.472,0.141c0.343-0.464,0.766-1.15,0.766-2.04c0-1.414-0.864-2.078-2.825-2.078
		c-0.262,0-0.567,0.02-0.869,0.041V148.158z M12.289,154.639h1.476c2.159,0,2.807-1.252,2.807-2.482
		c0-1.839-1.073-2.505-3.132-2.505h-1.151V154.639z"/>
	<path clip-path="url(#SVGID_2_)" d="M31.206,150.66c0,3.171-2.382,5.694-5.514,5.694c-3.349,0-5.269-2.463-5.269-5.491
		c0-3.17,2.363-5.693,5.492-5.693C29.449,145.17,31.206,147.513,31.206,150.66 M25.834,155.043c2.122,0,3.515-1.92,3.515-4.279
		c0-2.364-1.393-4.282-3.515-4.282c-2.119,0-3.533,1.918-3.533,4.282C22.301,153.123,23.715,155.043,25.834,155.043"/>
	<path clip-path="url(#SVGID_2_)" d="M42.085,146.927l-0.246-1.554h1.862v6.459c0,2.647-1.96,4.522-4.948,4.522
		c-4.343,0-4.442-3.856-4.442-4.119v-5.288l-0.263-1.574h1.979v6.742c0,1.675,1.292,2.907,3.049,2.907
		c1.776,0,3.009-1.355,3.009-3.027V146.927z"/>
	<polygon clip-path="url(#SVGID_2_)" points="45.935,145.373 55.404,145.373 55.404,146.744 51.469,146.744 51.469,154.781 
		51.67,156.092 49.753,156.092 49.753,146.744 45.935,146.744 	"/>
	<polygon clip-path="url(#SVGID_2_)" points="59.48,154.781 59.684,156.093 57.765,156.093 57.765,146.948 57.502,145.373 
		59.48,145.373 	"/>
	<path clip-path="url(#SVGID_2_)" d="M73.411,150.66c0,2.827-1.919,5.129-4.523,5.612c1.254,0.486,2.545,0.95,3.797,1.415
		l-0.749,1.515l-4.423-1.859v-1.009c-3.108-0.181-4.885-2.544-4.885-5.471c0-3.17,2.366-5.693,5.491-5.693
		C71.652,145.17,73.411,147.513,73.411,150.66 M68.039,155.043c2.122,0,3.513-1.92,3.513-4.279c0-2.364-1.391-4.282-3.513-4.282
		c-2.119,0-3.533,1.918-3.533,4.282C64.506,153.123,65.92,155.043,68.039,155.043"/>
	<path clip-path="url(#SVGID_2_)" d="M84.289,146.927l-0.243-1.554h1.858v6.459c0,2.647-1.959,4.522-4.947,4.522
		c-4.339,0-4.44-3.856-4.44-4.119v-5.288l-0.264-1.574h1.98v6.742c0,1.675,1.29,2.907,3.048,2.907c1.776,0,3.008-1.355,3.008-3.027
		V146.927z"/>
	<polygon clip-path="url(#SVGID_2_)" points="90.301,146.947 90.037,145.373 96.358,145.373 96.358,146.726 92.018,146.726 
		92.018,149.914 95.854,149.914 95.428,151.267 92.018,151.267 92.018,154.74 96.603,154.74 96.176,156.093 90.301,156.093 	"/>
	<path clip-path="url(#SVGID_2_)" d="M113.656,145.593c-0.947-0.986-2.058-1.534-3.392-1.534c-2.603,0-4.399,2.666-4.399,5.473
		c0,3.25,2.28,5.269,4.542,5.269c1.838,0,3.916-1.695,3.916-1.695l0.444,1.494c0,0-1.938,1.756-4.684,1.756
		c-3.131,0-6.157-2.304-6.157-6.623c0-4.139,2.867-7.165,6.421-7.165c1.673,0,3.047,0.563,4.238,1.654L113.656,145.593z"/>
	<path clip-path="url(#SVGID_2_)" d="M120.117,145.373l1.026-0.223l3.696,9.045l0.97,1.897h-2.018l-1.153-2.787h-4.402l-1.191,2.787
		h-1.614L120.117,145.373z M118.78,151.933h3.333l-1.414-3.491l-0.18-0.606l-0.224,0.606L118.78,151.933z"/>
	<polygon clip-path="url(#SVGID_2_)" points="127.884,145.373 134.204,145.373 134.204,146.725 129.863,146.725 129.863,149.915 
		133.697,149.915 133.276,151.266 129.863,151.266 129.863,154.781 130.066,156.092 128.146,156.092 128.146,146.947 	"/>
	<polygon clip-path="url(#SVGID_2_)" points="137.271,146.947 137.008,145.373 143.326,145.373 143.326,146.726 138.985,146.726 
		138.985,149.914 142.821,149.914 142.398,151.267 138.985,151.267 138.985,154.74 143.569,154.74 143.146,156.093 137.271,156.093 
			"/>
	<path clip-path="url(#SVGID_2_)" d="M155.071,142.806l1.234-0.261l4.118,11.327l1.01,2.22h-2.203l-1.272-3.474h-4.944l-1.314,3.474
		h-1.755L155.071,142.806z M153.561,151.083h3.896l-1.678-4.641l-0.2-0.788l-0.243,0.807L153.561,151.083z"/>
	<polygon clip-path="url(#SVGID_2_)" points="173.464,154.799 173.583,156.093 172.614,156.093 165.872,149.327 165.164,148.381 
		165.164,154.78 165.366,156.093 163.631,156.093 163.631,146.927 163.389,145.373 164.521,145.373 171.221,152.115 
		171.929,153.065 171.929,146.927 171.687,145.373 173.464,145.373 	"/>
	<path clip-path="url(#SVGID_2_)" d="M182.08,145.373c2.543,0,5.049,1.613,5.049,5.288c0,3.05-2.184,5.431-5.594,5.431h-3.774
		v-9.145l-0.263-1.574H182.08z M179.477,146.685v8.076h2.279c2.061,0,3.512-1.797,3.512-4.017c0-2.225-1.451-4.06-3.512-4.06
		H179.477z"/>
	<path clip-path="url(#SVGID_2_)" d="M198.572,142.806l1.228-0.261l4.118,11.327l1.012,2.22h-2.2l-1.272-3.474h-4.946l-1.312,3.474
		h-1.759L198.572,142.806z M197.052,151.083h3.898l-1.676-4.641l-0.199-0.788l-0.245,0.807L197.052,151.083z"/>
	<path clip-path="url(#SVGID_2_)" d="M213.688,156.093l-3.191-3.938l-1.512,0.021v2.604l0.201,1.313h-1.916v-9.146l-0.264-1.574
		h3.433c2.018,0,3.979,1.027,3.979,3.269c0,1.232-0.89,2.441-2.224,3.07l3.733,4.381H213.688z M210.115,150.823
		c1.331,0,2.483-0.99,2.483-2.182c0-1.271-1.152-1.917-2.483-1.917h-1.131v4.099H210.115z"/>
	<polygon clip-path="url(#SVGID_2_)" points="216.23,145.373 225.699,145.373 225.699,146.744 221.762,146.744 221.762,154.781 
		221.964,156.092 220.045,156.092 220.045,146.744 216.23,146.744 	"/>
	<polygon clip-path="url(#SVGID_2_)" points="229.775,154.781 229.977,156.093 228.057,156.093 228.057,146.948 227.794,145.373 
		229.775,145.373 	"/>
	<path clip-path="url(#SVGID_2_)" d="M233.08,155.082c0,0.019,0.205-1.553,0.205-1.553s1.352,1.452,3.129,1.452
		c1.031,0,1.858-0.545,1.858-1.615c0-2.037-5.168-2.139-5.168-5.09c0-1.693,1.475-3.107,3.55-3.107c1.415,0,2.488,0.466,3.073,0.808
		l-0.549,1.415c-0.036-0.083-1.21-0.85-2.582-0.85c-0.825,0-1.695,0.425-1.695,1.314c0,2.24,5.128,1.954,5.128,5.286
		c0,1.939-1.437,3.211-3.656,3.211c-2.159,0-3.269-1.212-3.269-1.212L233.08,155.082z"/>
	<path clip-path="url(#SVGID_2_)" d="M245.64,145.373l1.029-0.223l3.698,9.045l0.967,1.897h-2.019l-1.155-2.787h-4.401l-1.188,2.787
		h-1.616L245.64,145.373z M244.307,151.933h3.33l-1.41-3.491l-0.184-0.606l-0.223,0.606L244.307,151.933z"/>
	<polygon clip-path="url(#SVGID_2_)" points="263.363,154.799 263.482,156.093 262.514,156.093 255.769,149.327 255.066,148.381 
		255.066,154.78 255.268,156.093 253.529,156.093 253.529,146.927 253.287,145.373 254.419,145.373 261.122,152.115 
		261.828,153.065 261.828,146.927 261.585,145.373 263.363,145.373 	"/>
	<path clip-path="url(#SVGID_2_)" d="M276.033,142.706c2.528-0.08,4.322,1.049,4.322,3.151c0,1.109-0.988,2.24-1.512,2.765
		c1.31,0.605,2.278,1.436,2.278,3.353c0,2.16-1.291,4.117-4.966,4.117h-3.047v-11.426l-0.266-1.86L276.033,142.706z
		 M274.923,148.158h1.455c0.768,0,1.436,0.141,1.475,0.141c0.343-0.464,0.768-1.15,0.768-2.04c0-1.414-0.869-2.078-2.824-2.078
		c-0.266,0-0.566,0.02-0.873,0.041V148.158z M274.923,154.639h1.475c2.164,0,2.808-1.252,2.808-2.482
		c0-1.839-1.07-2.505-3.127-2.505h-1.155V154.639z"/>
	<path clip-path="url(#SVGID_2_)" d="M286.774,145.373l1.031-0.223l3.693,9.045l0.97,1.897h-2.02l-1.151-2.787h-4.4l-1.191,2.787
		h-1.618L286.774,145.373z M285.441,151.933h3.332l-1.415-3.491l-0.181-0.606l-0.223,0.606L285.441,151.933z"/>
	<polygon clip-path="url(#SVGID_2_)" points="301.021,156.093 296.521,150.802 296.521,154.78 296.725,156.093 294.805,156.093 
		294.805,146.947 294.544,145.373 296.521,145.373 296.521,150.317 300.057,146.442 300.035,146.461 300.602,145.373 
		303.124,145.373 298.399,150.418 303.367,156.093 	"/>
	<polygon clip-path="url(#SVGID_2_)" points="305.748,146.947 305.483,145.373 311.805,145.373 311.805,146.726 307.464,146.726 
		307.464,149.914 311.299,149.914 310.873,151.267 307.464,151.267 307.464,154.74 312.047,154.74 311.621,156.093 305.748,156.093 
			"/>
	<path clip-path="url(#SVGID_2_)" d="M321.691,156.093l-3.189-3.938l-1.512,0.021v2.604l0.201,1.313h-1.917v-9.146l-0.263-1.574
		h3.432c2.018,0,3.976,1.027,3.976,3.269c0,1.232-0.888,2.441-2.222,3.07l3.735,4.381H321.691z M318.12,150.823
		c1.33,0,2.484-0.99,2.484-2.182c0-1.271-1.154-1.917-2.484-1.917h-1.13v4.099H318.12z"/>
	<polygon clip-path="url(#SVGID_2_)" points="329.362,154.781 329.563,156.093 327.646,156.093 327.646,151.408 324.82,146.624 
		324.82,146.644 323.748,145.373 326.052,145.373 328.413,149.328 328.633,149.936 328.938,149.349 331.34,145.373 333.118,145.373 
		329.362,151.408 	"/>
	<path clip-path="url(#SVGID_2_)" fill="#231F20" d="M313.07,72.986c1.685-1.6,2.35-2.885,2.35-3.916
		c0-1.319-0.498-1.571-1.019-1.571c-0.148-1.145,0.77-2.139,1.809-2.139c1.36,0,2.039,0.857,2.039,2.275
		c0,1.748-1.535,4.284-4.53,6.208L313.07,72.986z"/>
	<path clip-path="url(#SVGID_2_)" fill="#231F20" d="M6.175,89.782V73.321c0-2.826-0.542-3.368-0.933-3.967l0.251-0.613l6.308-0.172
		c4.709-0.148,6.886,2.572,6.886,5.098c0,2.172-1.393,3.92-3.465,5.135c2.678,0.784,5.04,2.566,5.04,6.202
		c0,4.382-3.331,7.201-8.501,7.201H6.142C6.204,91.029,6.175,89.782,6.175,89.782 M9.736,79.974
		C9.69,83.831,9.69,87.709,9.802,90.492h2.283c3.567,0,4.992-2.177,4.992-4.317c0-4.026-2.558-5.993-5.839-6.125L9.736,79.974z
		 M14.054,78.556c0.708-0.689,1.598-1.926,1.598-3.896c0-2.633-1.776-4.165-3.992-4.128l-1.737,0.033c0,0.956,0,2.274-0.033,3.811
		c-0.041,1.279-0.117,2.608-0.117,3.956h1.887C12.411,78.332,13.224,78.416,14.054,78.556"/>
	<path clip-path="url(#SVGID_2_)" fill="#231F20" d="M34.465,92.206c0.036-1.178,0.067-2.424,0.067-18.966
		c0-2.813-0.531-3.317-0.92-3.921l0.245-0.609c0,0,1.101-0.462,2.461-0.462c0.634,0,1.353,0.107,2.024,0.427
		c-0.177,3.991-0.355,9.223-0.355,14.124c0,2.487,0,5.48,0.103,7.443h4.103c2.093,0,3.531-0.826,3.75-1.888h0.67
		c0.473,0.611,0.331,3.099-0.421,3.852H34.465z"/>
	<path clip-path="url(#SVGID_2_)" fill="#231F20" d="M103.027,68.32c5.166,0,9.48,4.03,9.48,11.73
		c-0.135,7.09-4.52,12.613-11.578,12.613c-4.461,0-9.057-4.063-9.057-11.798C91.872,73.487,96.607,68.32,103.027,68.32
		 M102.632,90.531c3.432,0,5.985-4.171,5.985-9.272c0-5.877-3.159-10.734-6.831-10.734c-3.466,0-6.064,4.135-6.064,9.204
		C95.722,85.256,98.753,90.531,102.632,90.531"/>
	<path clip-path="url(#SVGID_2_)" fill="#231F20" d="M166.925,89.063c0-0.391,0.147-0.783,0.393-1.175
		c0.287,1.03,3.078,2.286,5.312,2.286c2.09,0,4.449-0.715,4.449-3.284c0-4.775-10.05-5.775-10.05-12.298
		c0-3.107,2.25-6.382,6.605-6.382c2.92,0,4.635,1.036,5.6,1.607c0.251,0.859,0.291,2.989-0.607,3.89l-0.674-0.151
		c-0.819-2.525-3.325-3.42-4.717-3.42c-1.604,0-3.457,0.962-3.457,3.028c0,4.675,10.691,5.532,10.691,12.693
		c0,3.707-3.096,6.807-7.706,6.807C169.677,92.663,166.925,90.916,166.925,89.063"/>
	<path clip-path="url(#SVGID_2_)" fill="#231F20" d="M234.481,92.696c-4.881,0-8.418-1.634-8.594-7.944
		c-0.068-2.708-0.182-5.739-0.182-11.513c0-2.813-0.538-3.317-0.923-3.92l0.243-0.609c0,0,1.109-0.462,2.456-0.462
		c0.656,0,1.366,0.105,2.045,0.426c-0.176,4.419-0.176,10.299-0.176,15.621c0,5.233,3.343,6.019,5.439,6.019
		c3.536,0,6.101-2.175,6.285-4.777c0,0,0.141-1.144,0.141-12.373c0-2.097-0.325-3.142-0.93-3.844l0.251-0.609
		c0.354-0.25,1.07-0.426,1.777-0.426c0.644,0,1.289,0.139,1.615,0.39c-0.226,4.736-0.349,10.19-0.349,15.795
		C243.582,89.063,240.287,92.696,234.481,92.696"/>
	<path clip-path="url(#SVGID_2_)" fill="#FFFFFF" d="M301.353,43.418c-2.842,0-4.821,1.466-4.821,2.776
		c0,0.328,0.104,0.647,0.205,0.875h0.262c0.252,0,0.873-0.076,1.141-0.852c0.553-1.515,1.285-2.394,3.348-2.394
		c2.14,0,4.479,1.226,4.479,3.198c0,1.824-2.056,3.192-4.764,3.192c-3.111,0-5.699-1.928-7.831-3.816
		c-2.173-1.945-5.113-4.171-8.465-4.171c-0.25,0-0.528,0-0.762,0.024l-0.111,0.025l-0.092-0.086
		c-1.726-1.826-4.532-2.964-7.31-2.964c-5.464,0-9.299,2.733-12.312,5.403c-0.366,0.336-0.734,0.704-1.089,1.047
		c-2.009,1.977-3.909,3.845-7.024,3.845c-1.958,0-3.611-0.642-5.295-2.049c0.108-0.022,0.21-0.04,0.309-0.054
		c0.405-0.054,0.748-0.176,1.1-0.291c1.407-0.446,2.856-1.397,3.686-2.629v0.009c0.023-0.019,0.023-0.035,0.031-0.043
		c0.075-0.127,0.149-0.246,0.211-0.36v-0.021c0.038-0.05,0.068-0.094,0.098-0.148c0.799-1.562,0.581-2.853-0.011-3.85
		c0.042-0.02,0.07-0.054,0.102-0.075c0.033-0.022,0.043-0.042,0.059-0.051c0.649-0.502,1.122-1.077,1.477-1.625
		c0.007-0.007,0.007-0.015,0.011-0.015c0.062-0.11,0.132-0.222,0.187-0.33c0.212-0.345,0.376-0.692,0.503-1.039l-0.033,0.034
		c0.061-0.149,0.114-0.3,0.166-0.465c0.022-0.04,0.022-0.078,0.045-0.112c0.004-0.043,0.012-0.076,0.021-0.125
		c0.036-0.103,0.049-0.168,0.049-0.168l-0.013,0.009c0.137-0.676,0.182-1.418,0.065-2.28c-0.078-0.642-0.334-1.366-0.577-1.923
		c-0.698-1.522-1.9-2.775-3.313-3.759c-4.405-2.996-12.332-3.851-19.558-3.275c-0.306,0.03-0.608,0.063-0.913,0.091
		c-3.57,0.431-14.057,2.441-29.057,11.858c-4.665,2.996-9.349,6.091-15.271,7.843c-2.44,0.716-5.288,1.238-8.333,1.006
		c-0.473-0.031-1.199-0.079-1.779-0.17c-0.347-0.929-0.338-1.946-0.235-2.741c0.05-0.338,0.127-0.663,0.202-0.991
		c0.391-1.418,0.932-2.853,1.73-4.184c0.794-1.33,1.768-2.564,2.819-3.74c0.971-1.106,2.022-2.142,3.123-3.118
		c1.531-0.169,2.558-0.674,3.236-1.243l-0.01,0.013c0.021-0.013,0.029-0.028,0.052-0.037c0.106-0.097,0.211-0.191,0.311-0.294
		l0.006-0.005l0.011-0.01c0.015-0.016,0.022-0.019,0.028-0.031c0.042-0.045,0.073-0.088,0.114-0.134
		c0.06-0.066,0.113-0.136,0.17-0.205c0.286-0.381,0.493-0.779,0.61-1.164c0.203-0.029,0.396-0.051,0.587-0.079
		c4.319-0.703,4.381-3.637,4.381-3.637l0.012,0.007c0-0.147,0.004-0.298,0.004-0.439c0-0.299-0.046-0.602-0.146-0.907v-0.003
		l-0.004-0.01c-0.6-1.745-2.979-3.433-7.342-3.967c-1.154-0.138-2.172-0.198-3.032-0.207c-1.027,0.023-3.839,0.282-7.841,1.955
		c-0.18,0.07-0.365,0.142-0.541,0.222c-0.074,0.045-0.156,0.08-0.232,0.114l-0.554,0.259l-0.739,0.339l-0.722,0.359l-0.73,0.366
		l-0.757,0.359l-0.197,0.109l-0.346-0.185l-1.05-0.597l-0.974-0.576l0.559-0.331l0.801-0.491l0.833-0.507l0.833-0.485l0.797-0.472
		l0.805-0.438l0.813-0.44l0.81-0.446l0.802-0.39l0.781-0.367l0.802-0.339l0.827-0.31l0.749-0.282h0.021l0.02-0.004
		c0.392-0.142,0.692-0.193,0.692-0.193l0.706,0.401l0.113,0.06c1.664,0.865,2.972,1.209,3.939,1.316
		c0.684,0.049,1.195,0.021,1.6-0.042h0.052l0.018-0.015c1.536-0.305,1.175-1.319,1.175-1.319c-0.033-0.064-0.056-0.129-0.085-0.179
		c-0.06-0.072-0.104-0.145-0.174-0.208c-0.01-0.025-0.036-0.045-0.066-0.065c-0.022-0.02-0.043-0.04-0.07-0.06
		c-0.979-0.815-3.444-0.712-5.112-0.519c-0.945,0.115-1.677,0.245-1.677,0.245l-0.543-0.359l-0.656-0.488l-0.636-0.55l-0.652-0.619
		l-0.451-0.465c-0.454-0.516-0.874-1.044-1.293-1.583c-0.264-0.36-0.545-0.725-0.812-1.098v0.002
		c-0.406-0.559-1.166-1.454-1.396-1.717c-0.486-0.491-1.028-0.958-1.614-1.343c-0.508-0.327-1.056-0.599-1.629-0.805
		c-0.571-0.213-1.187-0.344-1.799-0.394c-1.231-0.094-2.473,0.16-3.571,0.66c-1.11,0.494-2.09,1.221-2.91,2.077
		c-0.199,0.227-0.397,0.445-0.581,0.681l-0.059,0.091l-0.05,0.046l-0.037,0.054l-0.121,0.159l-0.235,0.326
		c-0.322,0.444-0.646,0.874-0.993,1.287c-0.342,0.433-0.698,0.846-1.061,1.245c-0.364,0.399-0.744,0.792-1.126,1.167
		c-0.189,0.18-0.394,0.357-0.599,0.528c-0.109,0.084-0.199,0.165-0.31,0.251c-0.105,0.07-0.208,0.148-0.321,0.218
		c-0.23,0.158-0.486,0.302-0.727,0.458c0,0-4.438-1.342-6.413-0.438c-0.234,0.119-0.821,0.479-0.821,1.144
		c0,0.359,0.177,0.803,0.893,1.057c0.195,0.063,0.407,0.11,0.628,0.137h0.017c0.13,0.023,0.255,0.034,0.41,0.034
		c2.593,0.128,5.718-1.402,5.718-1.402l0.701,0.246l0.814,0.287l0.856,0.334l0.899,0.393l0.916,0.441l0.937,0.524l0.573,0.303
		l0.572,0.338l0.619,0.344l0.665,0.357l0.647,0.374l0.673,0.383l0.681,0.373l0.732,0.383l0.23,0.13l-0.52,0.281l-0.775,0.444
		l-0.745,0.443l-0.631,0.348c0,0-2.022-1.185-4.932-2.266l-0.145-0.057l-0.62-0.236l-0.633-0.206l-0.617-0.182l-0.622-0.179
		l-0.639-0.161l-0.402-0.097c0,0-0.041-0.003-0.065-0.008l-0.181-0.049l-0.629-0.128l-0.124-0.023
		c-1.555-0.29-3.19-0.443-4.787-0.33c0,0-2.984,0.022-5.365,1.418c-0.632,0.347-1.082,0.719-1.416,1.089
		c-1.021,1.121-0.864,2.176-0.864,2.176s-0.106,2.783,5.058,3.902c0.018,0.089,0.045,0.186,0.084,0.279l0.01,0.067l0.004,0.038
		c0.376,1.115,1.398,2.346,3.955,2.969c1.087,1.175,2.128,2.387,3.092,3.642c1.039,1.291,1.993,2.633,2.836,4.027
		c0.425,0.702,0.812,1.422,1.134,2.146c0.321,0.743,0.627,1.475,0.879,2.213c0.241,0.737,0.414,1.485,0.398,2.24
		c-0.006,0.325-0.05,0.637-0.131,0.959c-0.586,0.114-1.398,0.168-2.086,0.219c-2.374,0.177-4.514-0.06-6.31-0.532
		c-0.646-0.167-1.335-0.241-1.964-0.429c-2.616-0.787-4.725-1.735-6.888-2.842c-2.949-1.509-5.587-3.18-8.246-4.857
		c-14.379-9.326-25.795-11.152-29.503-11.505c-3.713-0.286-7.59-0.23-11.115,0.33c-2.085,0.339-3.679,0.655-5.386,1.354
		c-2.834,1.149-5.266,2.73-6.508,5.342c-0.281,0.613-0.525,1.242-0.615,1.923c0,0-0.029,0.228-0.041,0.61
		c-0.029,0.448,0,0.868,0.043,1.264c0.169,1.424,0.766,3.337,2.642,4.512c-0.032,0.22-0.175,0.491-0.245,0.697
		c-0.789,2.709,1.215,4.698,2.995,5.622c0.695,0.366,1.649,0.717,2.599,0.821c0.039,0.007,0.089,0.015,0.15,0.017
		c-1.668,1.378-3.307,2.004-5.246,2.004c-3.115,0-5.016-1.865-7.027-3.843c-0.348-0.353-0.707-0.702-1.082-1.053
		c-3.022-2.667-6.853-5.392-12.321-5.392c-2.775,0-5.575,1.127-7.31,2.956l-0.09,0.08l-0.102-0.008
		c-0.249-0.038-0.513-0.038-0.772-0.038c-3.349,0-6.278,2.236-8.459,4.18c-2.142,1.885-4.73,3.816-7.829,3.816
		c-2.715,0-4.774-1.381-4.774-3.2c0-1.974,2.334-3.192,4.496-3.192c2.049,0,2.77,0.873,3.335,2.384
		c0.273,0.78,0.895,0.866,1.152,0.866c0.096,0,0.174,0,0.244-0.009c0.111-0.227,0.213-0.548,0.213-0.868
		c0-1.314-1.969-2.769-4.814-2.769c-2.811,0-5.022,1.577-5.022,3.588c0,2.01,2.267,3.598,5.17,3.598c3.698,0,6.682-1.85,8.547-3.397
		c0.399-0.339,0.808-0.684,1.198-1.02c2.124-1.839,4.141-3.571,6.641-3.571h0.42l-0.222,0.348c-0.721,1.11-0.971,1.903-0.971,3.001
		c0,3.425,3.888,5.551,7.502,5.551c3.449,0,7.119-1.64,7.119-4.67c0-2.437-2.511-3.94-4.848-3.94c-0.844,0-2.093,0.179-3.171,1.032
		l-0.142,0.096l-0.135-0.092c-0.949-0.674-2.202-1.202-3.54-1.473l-0.414-0.096l0.289-0.291c1.563-1.594,3.8-2.468,6.289-2.468
		c4.122,0,6.418,2.242,8.62,4.418c0.423,0.397,0.84,0.809,1.265,1.199c3.494,3.23,6.742,4.67,10.545,4.67
		c2.23,0,4.051-0.747,5.894-2.414c0.054-0.024,0.117-0.059,0.163-0.104c-0.035-0.126-0.119-0.195-0.215-0.225l-0.012-0.01
		c-0.186-0.063-0.441-0.03-0.598-0.048c-2.26-0.28-3.996-1.396-4.906-2.984c-0.498-0.87-0.882-2.422-0.099-3.497
		c0.599,0.311,1.322,0.544,2.184,0.675c0.048,0.009,0.086,0.03,0.132,0.03c0.029,0.01,0.058,0.01,0.097,0.01
		c0.059,0.013,0.145,0.013,0.23,0.026c0.136,0.014,0.278,0.033,0.426,0.042h0.005h0.017c1.073,0.064,2.055-0.088,2.924-0.415
		c0.209-0.074,0.409-0.172,0.59-0.271c0.024-0.008,0.024-0.012,0.038-0.021c0.062-0.031,0.126-0.065,0.19-0.105
		c1.759-1.018,2.6-2.762,2.552-4.288c1.761-0.134,3.548-0.107,5.234,0.01c0,0.005,0.015,0.005,0.015,0.005
		c0.082,2.444,1.345,4.194,2.604,5.734c1.226,1.503,2.736,2.755,4.47,3.896c1.676,1.095,3.456,2.151,5.448,2.887
		c2.062,0.769,4.344,1.447,6.736,1.544c2.183,0.091,3.998-0.349,4.922-1.49l0.033-0.017l0.021-0.046
		c0.059-0.076,0.122-0.144,0.171-0.235c0.269-0.43,0.389-0.894,0.389-1.355c0.005-1.173-0.716-2.335-1.347-3.119
		c-0.683-0.837-1.425-1.523-2.156-2.125c-1.705-1.327-3.558-2.139-5.551-2.973c-2.043-0.859-4.22-1.605-6.521-2.179
		c-1.219-0.303-2.471-0.553-3.758-0.751c-1.656-0.275-3.211-0.436-4.623-0.529c-0.031-0.017-0.035-0.036-0.062-0.055
		c0.364-1.523,1.539-2.448,2.883-2.985c2.041-0.818,5.16-0.401,7.179,0.241c1.551,0.491,2.979,1.014,4.336,1.591
		c2.805,1.191,5.308,2.716,7.742,4.085c2.596,1.459,5.132,2.825,7.653,4.188c0.241,0.13,0.474,0.259,0.711,0.381h-0.013
		c0,0,7.827,4.531,15.263,6.066c0.011,0.006,0.038,0.006,0.045,0.009c0.865,0.171,1.712,0.303,2.56,0.398
		c8.809,1.043,11.555-2.187,12.426-4.216c0.166-0.068,0.365-0.108,0.365-0.108c0.937-0.224,4.38-1.216,7.445-3.87
		c0,0,3.539,3.106,7.981,4.014c0.331,0.287,0.637,0.683,0.925,0.94c0.017,0.01,0.017,0.01,0.032,0.024
		c0.021,0.031,0.053,0.053,0.089,0.076c0.106,0.101,0.244,0.203,0.363,0.3c0.028,0.019,0.051,0.042,0.068,0.06v-0.006
		c2.018,1.55,4.946,2.722,8.299,2.722c1.551,0,2.977-0.148,4.378-0.434c2.59-0.534,5.061-1.347,7.423-2.216
		c2.319-0.86,4.552-1.893,6.688-2.986c2.097-1.063,4.203-2.158,6.26-3.364c1.992-1.184,4.096-2.263,6.107-3.519
		c0.241-0.147,0.488-0.292,0.744-0.435c0.014-0.003,0.029-0.016,0.047-0.031c0.754-0.428,1.549-0.831,2.344-1.211
		c0.496-0.25,0.992-0.495,1.521-0.733c3.335-1.508,7.993-3.169,11.487-2.621c0.099,0.017,0.2,0.039,0.306,0.063h0.026
		c1.294,0.3,2.956,1.084,3.495,3.119c-1.617,0.144-3.196,0.352-4.717,0.6c-3.69,0.606-6.796,1.506-9.8,2.79
		c-1.942,0.824-3.742,1.683-5.453,2.938c-0.773,0.577-1.468,1.224-2.166,2.025c-0.674,0.769-1.366,1.673-1.588,2.647
		c-0.551,2.38,1.529,3.756,3.613,3.944c2.226,0.211,4.028-0.178,5.814-0.677c2.734-0.744,5.21-1.842,7.388-3.224
		c7.126-4.352,8.048-8.316,7.938-10.322c1.872-0.115,3.713-0.105,5.445,0.046c0,0.364,0.046,0.838,0.252,1.389
		c0.367,1.192,1.354,2.734,3.869,3.325c0.001,0.007,0.042,0.022,0.057,0.03c0.016,0.003,0.024,0.003,0.046,0.003
		c0.032,0.013,0.069,0.013,0.107,0.013c0.182,0.046,0.366,0.091,0.563,0.12c0.039,0.002,0.09,0.015,0.149,0.023
		c0.099,0.012,0.226,0.023,0.333,0.026c0.076,0.008,0.141,0.008,0.212,0.008l-0.011,0.005h0.067c1.473,0.06,2.691-0.301,3.69-0.89
		c0.072,0.081,0.196,0.249,0.249,0.401v0.009c0.242,0.48,0.276,1.085,0.221,1.628c-0.241,2.122-2.454,3.957-4.481,4.427
		c-0.461,0.109-0.924,0.069-1.341,0.219c-0.021,0.015-0.052,0.034-0.081,0.049c-0.09,0.038-0.176,0.094-0.263,0.166
		c0.074,0.056,0.154,0.086,0.24,0.114c1.852,1.684,3.669,2.435,5.906,2.435c3.787,0,7.047-1.439,10.552-4.677
		c0.426-0.392,0.831-0.792,1.239-1.199c2.217-2.171,4.511-4.418,8.634-4.418c2.486,0,4.729,0.876,6.296,2.467l0.275,0.294
		l-0.403,0.086c-1.326,0.279-2.598,0.812-3.542,1.482l-0.149,0.097l-0.119-0.097c-1.089-0.852-2.329-1.032-3.18-1.032
		c-2.344,0-4.856,1.515-4.856,3.932c0,3.046,3.677,4.675,7.136,4.675c3.604,0,7.5-2.118,7.5-5.546c0-1.11-0.256-1.898-0.975-3.004
		l-0.222-0.358h0.418c2.514,0,4.517,1.753,6.644,3.584c0.397,0.34,0.795,0.679,1.199,1.02c1.849,1.547,4.849,3.39,8.549,3.39
		c2.884,0,5.163-1.583,5.163-3.591C306.364,45.007,304.174,43.418,301.353,43.418 M187.235,15.363l0.028,0.006l0.075,0.008
		c0.287,0.018,0.589,0.05,0.869,0.092c2.038,0.325,1.928,0.936,1.08,1.171h-0.019c-0.869,0.217-3.19,0.054-5.376-1.171
		C183.894,15.469,185.507,15.246,187.235,15.363 M153.458,16.076c-1.34-0.316-0.095-0.858-0.095-0.858
		c2.46-0.89,5.439,0.122,5.439,0.122C156.302,16.68,153.458,16.076,153.458,16.076 M64.157,45.087l0.172,0.143
		c0.652,0.581,0.995,1.184,0.995,1.776c0,0.782-0.44,1.361-1.024,1.361c-0.596,0-1.084-0.606-1.084-1.361
		c0-0.65,0.273-1.249,0.799-1.767L64.157,45.087z M63.667,44.732l0.244,0.152l-0.207,0.203c-0.579,0.588-0.877,1.223-0.877,1.919
		c0,0.956,0.668,1.763,1.473,1.763c0.788,0,1.421-0.787,1.421-1.763c0-0.661-0.361-1.331-1.029-1.947l-0.205-0.183l0.217-0.163
		c0.747-0.533,1.689-0.805,2.818-0.805c2.231,0,3.797,1.457,3.797,3.541c0,2.956-3.047,4.275-6.068,4.275
		c-3.125,0-6.44-1.808-6.44-5.156c0-1.192,0.302-2.17,0.951-3.102l0.077-0.109l0.143,0.022
		C61.27,43.567,62.653,44.075,63.667,44.732 M95.576,39.239c-0.238,0.432-0.559,0.791-0.941,1.111
		c-2.261,1.769-4.86,1.112-6.117,0.613c-0.296-0.115-0.547-0.238-0.798-0.369c0.564-0.771,1.314-1.415,2.207-1.934
		c0.582-0.317,1.205-0.584,1.863-0.807c0.114-0.039,0.213-0.077,0.34-0.112c0.23-0.071,0.467-0.142,0.707-0.216
		c0.468-0.115,0.942-0.229,1.432-0.308c0.593-0.097,1.427-0.214,1.709-0.251C96.071,37.707,95.978,38.501,95.576,39.239
		 M107.743,37.647c3.008,0.561,5.887,1.287,8.354,2.208c0.935,0.354,1.771,0.703,2.55,1.066l0.208,0.087
		c-0.038-0.011-0.059-0.026-0.102-0.045c0.076,0.034,0.139,0.07,0.217,0.105l-0.115-0.06c1.8,0.87,8.121,4.201,7.003,7.696
		c-1.058,3.304-8.854,0.708-13.437-1.511c-0.826-0.406-1.627-0.844-2.382-1.314c-1.688-1.058-3.439-2.141-4.773-3.461
		c-1.324-1.333-2.759-2.991-2.644-5.449l0.01-0.003C104.546,37.134,106.329,37.393,107.743,37.647 M151.968,49.596h0.011
		c-0.048-0.007-0.104-0.01-0.156-0.013c-4.727-0.39-8.853-2.469-12.338-4.335c-2.643-1.417-5.374-2.908-8.019-4.476
		c-0.905-0.528-1.794-1.057-2.657-1.489c-3.592-1.813-7.171-3.863-11.26-5.395c-3.379-1.261-10.312-2.929-13.628-0.334
		c-0.807,0.625-1.327,1.461-1.719,2.579c-2.124-0.099-3.965-0.02-5.518,0.148c0,0-0.525-2.267-3.063-2.747
		c-0.099-0.014-0.192-0.026-0.278-0.045c-0.193-0.02-0.385-0.03-0.598-0.03c-0.189,0-0.371,0.011-0.545,0.03l-0.018,0.014
		c0,0-0.044,0-0.052,0.005c-0.158,0.018-0.226,0.041-0.226,0.041c-1.311,0.263-2.387,1.13-2.479,2.51c0,0,0.203-0.594,0.77-1.158
		c0.009-0.01,0.009-0.023,0.013-0.026c0.432-0.433,1.088-0.83,2.016-0.947c0.027,0,0.056,0,0.082-0.014c0.037,0,0.054,0,0.08-0.001
		c0.028-0.009,0.076-0.009,0.115-0.009c0.352-0.03,0.703-0.004,1.059,0.064l0.019,0.007c0.029,0.001,0.053,0.001,0.088,0.012
		c0.059,0.018,0.123,0.033,0.18,0.058h0.007c0.055,0.017,0.106,0.036,0.176,0.057c0,0,0.022,0.015,0.03,0.022
		c0.036,0.006,0.064,0.026,0.105,0.04c0.714,0.345,1.388,1.195,1.686,2.22l-0.329,0.054c0,0-0.029,0.002-0.052,0.009
		c-0.205,0.034-0.453,0.077-0.616,0.107c-3.064,0.554-4.568,1.408-4.568,1.408l-0.01,0.008c-1.209,0.602-2.225,1.394-3.062,2.322
		c-0.024-0.015-0.037-0.023-0.063-0.031c-3.789-2.548-2.045-7.253-2.045-7.253c0.264-0.677,0.623-1.259,1.024-1.756
		c1.82-2.214,4.758-3.303,4.758-3.303h-0.013c0.2-0.07,0.389-0.148,0.575-0.22c3.613-1.317,7.506-1.922,12.323-1.683
		c0.275,0.01,0.531,0.037,0.808,0.057c2.592,0.233,11.331,1.418,23.133,7.178c1.201,0.619,2.367,1.239,3.545,1.857
		c1.703,0.904,3.335,1.902,5,2.858c0.04,0.02,0.065,0.031,0.101,0.054l-0.007-0.01c0.238,0.138,0.489,0.283,0.725,0.425
		c1.955,1.084,3.907,2.168,5.982,3.182c4.056,1.968,8.455,4.055,13.812,4.473c1.908,0.143,3.932,0.083,5.775-0.148
		C162.647,45.972,160.712,50.256,151.968,49.596 M176.51,22.752l0.831-0.468l0.862-0.417l0.841-0.41l0.832-0.421l0.832-0.364
		l0.841-0.319l0.836-0.305l0.819-0.266l0.85-0.229l0.824-0.182l0.875-0.124l0.859-0.107l0.148-0.005l-0.309,0.024
		c0.497-0.045,3.17-0.193,6.165,0.819c0.564,0.217,3.889,1.601,3.7,3.855c-0.148,1.636-1.652,2.483-2.784,2.889
		c-0.069,0.023-0.113,0.035-0.182,0.061c-0.041,0.008-0.055,0.014-0.09,0.025c-0.245,0.077-0.526,0.145-0.795,0.202
		c0.15-1.332-0.473-2.403-0.473-2.403c-0.595-1.163-1.634-1.675-1.858-1.767c-1.535-0.751-3.407-0.653-4.416-0.511
		c-0.743,0.083-1.336,0.251-1.701,0.542c-0.043,0.024-0.078,0.046-0.12,0.073l-0.005,0.013l-0.014,0.018
		c-0.028,0.034-0.047,0.061-0.06,0.089c-0.146,0.25-0.054,0.608,0.521,0.354l0.077-0.042c0.15-0.081,0.316-0.148,0.451-0.213
		c0.492-0.178,1.363-0.397,2.599-0.363c0.114,0,0.202,0.009,0.306,0.02c1.214,0.108,4.327,0.722,3.567,4.347l-0.129,0.011
		c-0.845,0.032-4.574,0.074-9.556-1.54l-0.324-0.107l-0.757-0.259l-0.752-0.283l-0.737-0.29l-0.699-0.313l-0.702-0.308l-0.646-0.297
		c-0.049-0.024-0.082-0.043-0.132-0.069l-0.479-0.231c-0.203-0.111-0.425-0.224-0.629-0.33L176.51,22.752z M174.811,23.712
		l0.463-0.264c0,0,5.955,3.069,9.528,3.737c2.393,0.447,3.799,0.556,4.887,0.572l0.28,0.015l1.078-0.031l0.067-0.006l-0.285,0.42
		c-0.621,0.798-2.429,2.415-6.445,1.816c-2.523-0.371-5.277-1.48-7.516-2.554l-0.042-0.01l-0.888-0.468l-0.895-0.472l-0.854-0.468
		l-0.857-0.487l-0.85-0.472l0.583-0.341l0.894-0.495L174.811,23.712z M170.061,19.894l-0.962-0.574l-0.957-0.571l-0.947-0.525
		l-0.918-0.515l-0.936-0.497l-0.91-0.437l-0.915-0.419l-0.88-0.367l-0.917-0.309l-0.915-0.263l-0.459-0.111
		c0.027-0.012,0.043-0.017,0.069-0.034c0.529-0.255,0.996-0.597,1.463-0.944c0.907-0.705,1.708-1.504,2.483-2.336
		c0.387-0.414,0.745-0.839,1.111-1.276c0.087-0.109,0.167-0.222,0.256-0.334l0.133-0.168l0.021-0.021l0.011-0.013l0.025-0.035
		l0.066-0.074c0.164-0.192,0.333-0.379,0.519-0.564c0.731-0.712,1.589-1.303,2.511-1.722c0.919-0.409,1.91-0.606,2.889-0.552
		c0.986,0.057,1.95,0.377,2.818,0.901c0.554,0.312,1.036,0.693,1.516,1.117c0.18,0.205,0.86,0.92,1.512,1.627
		c0.01,0.03,0.034,0.049,0.063,0.081c0.144,0.175,0.315,0.353,0.467,0.534c0.007,0.004,0.021,0.018,0.033,0.029
		c0.073,0.082,0.142,0.163,0.23,0.25c0,0.006,0.005,0.02,0.013,0.032c0,0,2.904,3.138,4.148,3.591l-0.146,0.022l-0.828,0.188
		l-0.835,0.233l-0.831,0.257l-0.836,0.284l-0.81,0.29l-0.839,0.33l-0.81,0.369l-0.785,0.371l-0.809,0.381l-0.809,0.395l-0.781,0.416
		l-0.78,0.44l-0.786,0.411l-0.782,0.45l-0.307,0.18L170.061,19.894z M169.311,22.752l0.833-0.494l0.855-0.502l0.49-0.279l0.688,0.39
		l0.754,0.391l0.762,0.387l0.233,0.121l-0.727,0.385l-0.77,0.376l-0.746,0.393l-0.617,0.322l-0.327-0.164l-0.827-0.497l-0.869-0.461
		l-0.184-0.111L169.311,22.752z M154.585,22.966c0.955,0.035,1.807,0.248,2.004,0.299c0.387,0.091,0.773,0.319,1.013,0.43
		c0.247,0.097,0.694,0.175,0.805-0.118c0.149-0.363-0.506-0.592-0.506-0.592c-0.521-0.192-1.491-0.414-2.536-0.479l-0.116-0.015
		h-0.174c-1.105-0.036-2.254,0.107-3.05,0.636c-0.811,0.534-1.188,1.322-1.362,1.978c0,0-0.088,0.264-0.131,0.665
		c-0.043,0.282-0.043,0.492-0.043,0.579c-4.369-1.137-4.183-4.625-1.194-6.365l0.368-0.202l0.143-0.054
		c0.095-0.049,0.181-0.094,0.291-0.14l0.392-0.14l0.426-0.128l0.469-0.105l0.468-0.104l0.417-0.071
		c0.085-0.005,0.183-0.017,0.255-0.025l0.037-0.006c6.702-0.57,13.142,2.738,14.389,3.418l0.067,0.042
		c0.028,0.015,0.055,0.025,0.07,0.037l0.078,0.043c-6.925,3.883-11.068,4.036-11.068,4.036c-1.975,0.206-3.573,0.152-4.847-0.079
		C150.78,23.043,154.285,22.966,154.585,22.966 M151.442,27.147c0.588,0.094,1.25,0.173,1.963,0.22
		c8.364,0.559,15.022-4.095,15.022-4.095l0.672,0.389l0.68,0.417l0.674,0.385l0.088,0.052l-0.33,0.184l-0.74,0.391l-0.737,0.392
		l-0.731,0.387l-0.721,0.363l-0.714,0.359l-0.707,0.348l-0.664,0.336l-0.685,0.338l-0.653,0.307l-0.651,0.292l-0.625,0.279
		l-0.638,0.264l-0.49,0.198h-0.01c-2.816,1.002-4.925,1.067-6.466,0.724C152.7,29.094,151.792,27.979,151.442,27.147
		 M179.532,39.664c-0.048,0.096-0.088,0.209-0.139,0.312c-0.012,0.054-0.035,0.112-0.052,0.162v-0.004
		c-0.095,0.255-0.174,0.509-0.235,0.768V40.9c0,0-0.708,2.31,0.127,4.385c-0.641-0.161-1.58-0.445-2.201-0.675
		c-0.041-0.003-0.065-0.016-0.1-0.041c-1.824-0.573-3.484-1.61-4.803-2.788c-0.229-0.194-0.569-0.568-0.721-0.576
		c0,0-0.443,0.604-2.873,2.146c-0.071,0.048-0.163,0.097-0.236,0.145c-0.063,0.037-0.137,0.084-0.205,0.119
		c-0.162,0.106-0.342,0.194-0.503,0.282c-0.057,0.037-0.101,0.058-0.168,0.091c-1.721,0.882-3.288,1.251-3.693,1.344
		c0.184-0.592,0.192-0.996,0.192-0.996v0.01c0.227-2.109-0.75-3.983-0.75-3.983c-1.789-4.185-7.121-9.73-7.121-9.73l-0.022-0.013
		c0.989,0.138,2.077,0.162,3.287,0c5.085-0.629,12.633-5.28,12.633-5.28c0.37,0.21,3.65,2.775,8.668,4.355l0.275,0.099l0.655,0.207
		l0.677,0.182l0.65,0.157l0.653,0.131l0.648,0.105l0.176,0.014c0.761,0.123,1.418,0.192,2.05,0.209l-0.051,0.005
		C186.353,30.804,181.657,34.649,179.532,39.664 M237.073,42.477c-0.004,0.016-0.04,0.035-0.055,0.054
		c-0.083,0.063-0.168,0.143-0.271,0.217c-0.462,0.391-0.955,0.765-1.462,1.123c-0.063,0.041-0.113,0.08-0.186,0.125
		c-0.143,0.107-0.318,0.221-0.49,0.338c-0.108,0.077-0.213,0.151-0.334,0.222c-0.048,0.028-0.069,0.051-0.117,0.079
		c-5.896,3.802-15.093,6.6-17.144,4.212c-0.224-0.311-0.392-0.688-0.409-1.281v-0.031c0-0.054,0.008-0.104,0.008-0.162
		c0.325-3.606,7.585-6.815,11.208-8.202c0.746-0.279,1.581-0.567,2.486-0.845c2.209-0.63,4.582-1.166,6.929-1.572
		c0.958-0.145,1.926-0.247,2.863-0.32c0.013,0.198,0.036,0.406,0.05,0.629C240.101,38.543,239.405,40.422,237.073,42.477
		 M250.492,40.683c-2.307-0.66-3.358-2.507-3.342-4.196c3.684,0.418,6.758,1.501,8.236,3.431
		C254.187,40.963,252.205,41.13,250.492,40.683 M256.036,39.621c0,0-1.636-3.012-8.734-3.878c-0.023-0.003-0.041-0.01-0.081-0.014
		c0.126-0.609,0.397-1.167,0.806-1.596c0.342-0.311,0.751-0.542,1.185-0.711c2.365-0.683,3.658,0.728,4.19,1.524
		c0.093,0.158,0.171,0.32,0.269,0.488c0,0-0.132-2.656-3.596-2.688c-0.745,0.058-3,0.42-3.565,2.913
		c-1.616-0.153-3.476-0.194-5.639-0.084c-0.091-0.376-0.175-0.587-0.175-0.587v0.008c-2.325-6.277-14.01-2.043-14.243-1.962
		c-0.394,0.137-0.78,0.278-1.127,0.425c-2.233,0.888-4.29,1.908-6.259,2.836c-3.436,1.834-6.902,3.638-10.154,5.651
		c-4.621,2.541-10.355,5.535-13.565,6.643c-2.25,0.712-4.767,1.135-7.469,0.848c-2.734-0.285-5.002-1.215-6.736-2.556
		c-0.268-0.253-0.465-0.49-0.592-0.664c-0.056-0.083-0.116-0.183-0.162-0.279c4.324,0.569,9.031-0.286,12.39-1.407
		c1.62-0.543,3.257-1.261,4.713-1.96c3.578-1.765,12.542-6.838,12.542-6.838c4.096-2.353,8.291-4.681,13.036-6.517
		c4.482-1.741,9.731-3.319,15.35-3.747c2.217-0.174,4.06-0.174,6.306,0c2.757,0.203,5.828,0.996,8.083,2.017
		c2.708,1.233,5.387,3.367,5.737,6.785C258.789,36.866,257.469,38.523,256.036,39.621 M278.999,44.635l0.155-0.138l0.169,0.148
		c0.513,0.528,0.787,1.125,0.787,1.769c0,0.755-0.483,1.366-1.07,1.366c-0.594,0-1.03-0.579-1.03-1.366
		C278.01,45.82,278.353,45.224,278.999,44.635 M284.54,45.98c0,3.345-3.321,5.148-6.452,5.148c-3.026,0-6.068-1.322-6.068-4.277
		c0-2.08,1.56-3.533,3.789-3.533c1.131,0,2.079,0.269,2.825,0.8l0.217,0.159l-0.202,0.194c-0.685,0.616-1.034,1.286-1.034,1.943
		c0,0.976,0.635,1.765,1.426,1.765c0.796,0,1.466-0.806,1.466-1.765c0-0.685-0.305-1.333-0.879-1.917l-0.201-0.203l0.233-0.147
		c1.022-0.657,2.409-1.171,3.69-1.364l0.141-0.018l0.081,0.119C284.229,43.809,284.54,44.79,284.54,45.98"/>
	<path clip-path="url(#SVGID_2_)" fill="#8B0E04" d="M301.354,43.019c-3.124,0-5.223,1.642-5.223,3.176
		c0,0.413,0.131,0.793,0.24,1.038c0.064,0.144,0.207,0.237,0.365,0.237h0.262c0.709,0,1.276-0.419,1.517-1.115
		c0.515-1.413,1.116-2.131,2.972-2.131c1.97,0,4.078,1.124,4.078,2.798c0,1.592-1.875,2.792-4.363,2.792
		c-2.971,0-5.491-1.878-7.564-3.714c-2.222-1.99-5.223-4.273-8.732-4.273c-0.229,0-0.48,0-0.736,0.022
		c-1.805-1.867-4.684-3.024-7.537-3.024c-5.609,0-9.506,2.783-12.582,5.509c-0.271,0.247-0.539,0.51-0.803,0.769l-0.297,0.288
		c-1.948,1.918-3.789,3.729-6.743,3.729c-1.603,0-2.976-0.444-4.354-1.426c0.166-0.047,0.324-0.099,0.479-0.15l0.109-0.036
		c1.585-0.503,3.022-1.522,3.859-2.733c0.03-0.035,0.063-0.08,0.081-0.108l0.063-0.105c0.056-0.093,0.109-0.182,0.156-0.269
		c0.006-0.012,0.012-0.025,0.018-0.038c0.029-0.042,0.056-0.086,0.084-0.138c0.694-1.359,0.742-2.709,0.145-3.926
		c0.558-0.451,1.045-0.998,1.408-1.576c0.014-0.014,0.028-0.03,0.041-0.048c0.014-0.017,0.025-0.035,0.035-0.054l0.068-0.116
		c0.045-0.077,0.088-0.153,0.11-0.199c0.216-0.352,0.397-0.726,0.538-1.111c0.013-0.036,0.02-0.071,0.021-0.106
		c0.038-0.104,0.068-0.199,0.083-0.265c0.032-0.056,0.052-0.118,0.03-0.087c0.037-0.056,0.06-0.148,0.066-0.215
		c0.047-0.136,0.063-0.223,0.063-0.223c0.005-0.029,0.007-0.058,0.006-0.087c0.142-0.756,0.159-1.514,0.052-2.31
		c-0.091-0.733-0.379-1.511-0.61-2.041c-0.681-1.482-1.841-2.801-3.452-3.923c-3.331-2.265-8.861-3.513-15.572-3.513
		c-1.402,0-2.831,0.057-4.25,0.171l-0.922,0.092c-3.813,0.46-14.291,2.543-29.225,11.919l-0.551,0.354
		c-4.417,2.839-8.983,5.775-14.617,7.441c-2.398,0.703-4.604,1.045-6.742,1.046c-0.477,0-0.959-0.018-1.451-0.055
		c-0.354-0.024-0.971-0.064-1.506-0.133c-0.252-0.83-0.218-1.711-0.14-2.321c0.044-0.301,0.112-0.592,0.192-0.943
		c0.436-1.582,0.988-2.918,1.688-4.086c0.698-1.168,1.605-2.371,2.777-3.68c0.883-1.006,1.89-2.014,2.994-3
		c1.352-0.167,2.461-0.605,3.302-1.303c0.04-0.026,0.09-0.065,0.114-0.087c0.099-0.09,0.195-0.179,0.301-0.286
		c0.017-0.015,0.035-0.036,0.053-0.059l0.103-0.119c0.043-0.048,0.083-0.097,0.124-0.147c0.004-0.004,0.068-0.083,0.071-0.088
		c0.254-0.339,0.45-0.688,0.587-1.04l0.354-0.047c4.053-0.66,4.625-3.262,4.704-3.888c0.016-0.043,0.024-0.09,0.024-0.137
		l0.004-0.439c0-0.347-0.055-0.692-0.164-1.026c-0.002-0.009-0.005-0.017-0.008-0.025c-0.74-2.153-3.607-3.735-7.672-4.233
		c-1.075-0.129-2.109-0.2-3.09-0.21c-1.027,0.023-3.865,0.264-7.977,1.981c-0.186,0.073-0.378,0.149-0.603,0.253
		c-0.05,0.031-0.104,0.054-0.194,0.094l-3.533,1.698L172.9,21.11l5.641-3.25l1.564-0.747l2.33-0.914
		c0.029-0.006,0.057-0.012,0.069-0.015c0.202-0.073,0.378-0.12,0.49-0.146l0.7,0.393c1.469,0.765,2.842,1.222,4.096,1.361
		c0.684,0.05,1.203,0.028,1.68-0.042c0.049,0,0.102-0.012,0.151-0.033c0.642-0.138,1.084-0.413,1.313-0.817
		c0.279-0.491,0.123-0.965,0.104-1.017c-0.003-0.01-0.047-0.104-0.051-0.113c-0.021-0.049-0.044-0.095-0.066-0.135
		c-0.008-0.013-0.07-0.095-0.079-0.107c-0.039-0.052-0.078-0.101-0.123-0.148c-0.053-0.075-0.111-0.113-0.117-0.114
		c-0.003-0.003-0.076-0.066-0.08-0.069c-0.855-0.711-2.793-0.912-5.416-0.608c-0.693,0.084-1.272,0.176-1.539,0.221l-1.027-0.729
		l-0.622-0.537l-1.079-1.058c-0.448-0.51-0.863-1.032-1.27-1.556l-0.337-0.452c-0.158-0.212-0.317-0.425-0.474-0.642
		c-0.445-0.612-1.244-1.547-1.436-1.764c-0.55-0.555-1.115-1.025-1.682-1.398c-0.539-0.347-1.115-0.631-1.706-0.844
		c-0.598-0.222-1.239-0.363-1.908-0.417c-1.263-0.093-2.567,0.149-3.765,0.693c-1.112,0.496-2.134,1.224-3.049,2.18l-0.117,0.134
		c-0.164,0.185-0.325,0.369-0.496,0.59l-0.045,0.062c-0.018,0.016-0.07,0.088-0.084,0.106l-0.363,0.494
		c-0.316,0.436-0.634,0.857-0.983,1.273c-0.336,0.426-0.685,0.831-1.042,1.223c-0.36,0.394-0.735,0.781-1.107,1.148
		c-0.182,0.173-0.381,0.345-0.566,0.5l-0.42,0.325c-0.058,0.041-0.117,0.083-0.194,0.131c-0.13,0.089-0.269,0.174-0.408,0.258
		l-0.153,0.096c-0.612-0.173-2.686-0.718-4.502-0.718c-0.832,0-1.511,0.118-2.033,0.357c-0.312,0.16-1.038,0.625-1.038,1.501
		c0,0.382,0.15,1.076,1.17,1.438c0.223,0.072,0.459,0.123,0.696,0.149c0.154,0.028,0.29,0.043,0.461,0.04
		c2.364,0.113,5.086-1.058,5.761-1.369l1.347,0.473l1.726,0.715l6.582,3.592l-1.83,1.056c-0.582-0.325-2.374-1.284-4.787-2.18
		l-0.789-0.301l-1.898-0.575l-2.065-0.472c-1.749-0.326-3.431-0.442-4.863-0.336c-0.126,0.001-3.119,0.039-5.554,1.467
		c-0.616,0.338-1.114,0.721-1.519,1.17c-1.126,1.236-0.975,2.431-0.969,2.43c-0.004,0.126-0.055,3.044,5.134,4.255
		c0.007,0.022,0.014,0.042,0.021,0.061c0.004,0.026,0.014,0.088,0.023,0.113c0.363,1.077,1.373,2.499,4.12,3.201
		c1.123,1.217,2.101,2.372,2.994,3.534c1.057,1.313,2.001,2.653,2.805,3.983c0.44,0.727,0.814,1.434,1.109,2.098
		c0.301,0.694,0.614,1.439,0.866,2.178c0.271,0.828,0.391,1.498,0.379,2.107c-0.005,0.206-0.026,0.41-0.065,0.619
		c-0.484,0.073-1.08,0.117-1.616,0.157l-0.167,0.012c-2.228,0.167-4.272-0.019-6.18-0.521c-0.297-0.077-0.602-0.134-0.906-0.192
		c-0.354-0.066-0.707-0.132-1.042-0.232c-2.829-0.851-5.035-1.901-6.821-2.816c-2.888-1.478-5.535-3.147-8.094-4.762l-0.117-0.074
		c-14.257-9.247-25.507-11.17-29.69-11.568c-4.004-0.307-7.887-0.193-11.21,0.334c-2.266,0.368-3.81,0.697-5.472,1.378
		c-3.452,1.399-5.587,3.16-6.722,5.546c-0.263,0.576-0.545,1.268-0.647,2.039c0,0-0.032,0.242-0.043,0.635
		c-0.034,0.51,0.006,0.98,0.045,1.336c0.169,1.431,0.757,3.366,2.572,4.637c-0.019,0.049-0.04,0.099-0.06,0.147
		c-0.036,0.088-0.071,0.172-0.103,0.266c-0.826,2.839,1.109,5.007,3.193,6.088c0.614,0.324,1.299,0.577,1.953,0.729
		c-1.349,0.936-2.694,1.36-4.264,1.36c-2.955,0-4.797-1.811-6.742-3.723c-0.352-0.358-0.714-0.71-1.103-1.073
		c-3.077-2.716-6.979-5.492-12.585-5.492c-2.865,0-5.757,1.164-7.54,3.019c-0.239-0.028-0.489-0.029-0.734-0.029
		c-3.475,0-6.488,2.288-8.723,4.28c-2.088,1.837-4.619,3.716-7.565,3.716c-2.493,0-4.374-1.204-4.374-2.8
		c0-1.725,2.127-2.792,4.097-2.792c1.83,0,2.433,0.715,2.957,2.115c0.368,1.053,1.263,1.135,1.529,1.135
		c0.117,0,0.211-0.002,0.296-0.013c0.133-0.018,0.248-0.1,0.307-0.22c0.162-0.328,0.254-0.709,0.254-1.045
		c0-1.53-2.095-3.169-5.214-3.169c-3.04,0-5.422,1.752-5.422,3.989c0,2.241,2.446,3.997,5.57,3.997c3.802,0,6.885-1.897,8.806-3.492
		l0.27-0.229c0.313-0.265,0.628-0.531,0.931-0.793c1.971-1.707,3.838-3.323,6.066-3.464c-0.623,1.027-0.86,1.852-0.86,2.94
		c0,3.675,4.102,5.951,7.902,5.951c3.645,0,7.519-1.777,7.519-5.07c0-2.681-2.723-4.34-5.247-4.34c-0.895,0-2.191,0.185-3.318,1.04
		c-0.917-0.629-2.072-1.121-3.286-1.403c1.471-1.375,3.51-2.129,5.779-2.129c3.984,0,6.198,2.187,8.347,4.309l0.519,0.495
		c0.249,0.238,0.497,0.477,0.748,0.707c3.573,3.303,6.909,4.776,10.816,4.776c2.319,0,4.209-0.765,6.121-2.479
		c0.086-0.045,0.158-0.097,0.217-0.155c0.103-0.101,0.143-0.25,0.105-0.389c-0.061-0.222-0.21-0.393-0.416-0.478
		c-0.022-0.013-0.044-0.023-0.068-0.031c-0.189-0.065-0.403-0.075-0.547-0.063c-0.047,0.002-0.095,0.001-0.13-0.004
		c-2.061-0.255-3.74-1.27-4.609-2.785c-0.325-0.569-0.756-1.814-0.291-2.781c0.582,0.257,1.241,0.443,1.963,0.554
		c0.041,0.012,0.11,0.033,0.198,0.033v-0.001c0.005,0.001,0.008,0.002,0.01,0.002c0.048,0.011,0.107,0.017,0.171,0.022l0.032-0.398
		l0.074,0.41l0.128,0.013c0.101,0.011,0.205,0.023,0.337,0.031c1.107,0.064,2.144-0.085,3.081-0.438
		c0.229-0.081,0.449-0.189,0.585-0.27c0.038-0.013,0.06-0.02,0.093-0.043c0.07-0.037,0.143-0.075,0.207-0.115
		c1.606-0.929,2.653-2.571,2.746-4.26c1.392-0.089,2.898-0.084,4.475,0.012c0.192,2.393,1.474,4.149,2.673,5.615
		c1.158,1.42,2.65,2.721,4.562,3.979c1.541,1.007,3.403,2.142,5.526,2.927c1.809,0.674,4.224,1.461,6.86,1.569
		c2.415,0.106,4.239-0.45,5.2-1.579c0.061-0.043,0.113-0.106,0.143-0.173c0.062-0.077,0.122-0.153,0.159-0.224
		c0.299-0.477,0.45-1.004,0.45-1.566c0.006-1.306-0.778-2.554-1.437-3.373c-0.609-0.747-1.312-1.439-2.22-2.187
		c-1.708-1.331-3.566-2.159-5.642-3.027c-2.163-0.91-4.376-1.649-6.579-2.198c-1.226-0.305-2.503-0.56-3.789-0.758
		c-1.383-0.229-2.773-0.395-4.238-0.504c0.378-1.01,1.224-1.782,2.52-2.299c0.703-0.282,1.591-0.424,2.639-0.424
		c1.342,0,2.938,0.252,4.27,0.675c1.547,0.49,2.953,1.006,4.3,1.578c2.257,0.958,4.323,2.139,6.321,3.28
		c0.464,0.265,0.924,0.528,1.382,0.785c2.411,1.356,4.772,2.632,7.116,3.899l0.752,0.406c0.146,0.08,0.29,0.158,0.435,0.234
		c0.014,0.01,0.028,0.02,0.043,0.028c0.078,0.046,7.969,4.581,15.382,6.112v-0.002c0.019,0.005,0.037,0.008,0.049,0.011
		c0.879,0.174,1.728,0.306,2.59,0.403c1.149,0.136,2.245,0.205,3.259,0.205c6.393,0,8.693-2.743,9.508-4.497
		c0.081-0.023,0.149-0.037,0.164-0.04c0.685-0.164,4.181-1.1,7.355-3.736c0.905,0.735,3.992,3.053,7.79,3.86
		c0.141,0.129,0.274,0.276,0.405,0.418c0.145,0.157,0.285,0.309,0.447,0.452c0.052,0.061,0.094,0.104,0.107,0.091
		c0.082,0.079,0.182,0.158,0.279,0.236l0.145,0.116c0.026,0.027,0.057,0.05,0.089,0.067c2.315,1.759,5.405,2.766,8.492,2.766
		c1.544,0,3.003-0.144,4.458-0.442c2.848-0.586,5.494-1.501,7.482-2.232c2.098-0.778,4.299-1.761,6.729-3.004
		c2.007-1.018,4.157-2.131,6.284-3.377c0.838-0.499,1.697-0.979,2.561-1.461c1.172-0.656,2.385-1.332,3.55-2.06
		c0.237-0.145,0.479-0.288,0.731-0.428l-0.003-0.004c0.021-0.011,0.04-0.021,0.052-0.028c0.674-0.382,1.432-0.774,2.326-1.202
		c0.49-0.247,0.983-0.49,1.506-0.726c2.717-1.228,6.633-2.692,9.865-2.692c0.493,0,0.963,0.034,1.389,0.101
		c0.092,0.016,0.188,0.036,0.311,0.058c1.086,0.253,2.449,0.871,3.049,2.378c-1.374,0.134-2.799,0.321-4.244,0.557
		c-3.658,0.6-6.801,1.495-9.893,2.817c-1.806,0.766-3.727,1.657-5.536,2.985c-0.808,0.603-1.515,1.265-2.228,2.082
		c-0.691,0.789-1.432,1.741-1.677,2.821c-0.229,0.99-0.06,1.914,0.489,2.674c0.701,0.967,2,1.625,3.477,1.758
		c2.322,0.216,4.242-0.211,5.957-0.69c2.717-0.738,5.238-1.839,7.49-3.268c6.891-4.208,8.109-8.114,8.138-10.286
		c1.626-0.085,3.196-0.072,4.653,0.039c0.032,0.394,0.117,0.772,0.254,1.136c0.322,1.048,1.285,2.9,4.105,3.585
		c0.009,0.004,0.018,0.007,0.024,0.01c0.033,0.017,0.067,0.029,0.104,0.035c0.011,0.002,0.028,0.004,0.047,0.006
		c0.068,0.016,0.111,0.015,0.082,0.005c0.193,0.05,0.392,0.097,0.637,0.132l0.044-0.396l0.084,0.417
		c0.11,0.013,0.249,0.025,0.339,0.027c0.088,0.009,0.163,0.01,0.243,0.01c0.017,0.003,0.034,0.004,0.05,0.005
		c1.313,0.052,2.498-0.204,3.574-0.76c0.007,0.02,0.015,0.041,0.025,0.06c0.223,0.442,0.221,1.009,0.18,1.403
		c-0.225,1.976-2.342,3.657-4.176,4.082c-0.183,0.043-0.365,0.06-0.545,0.077c-0.273,0.026-0.557,0.054-0.84,0.156
		c-0.034,0.012-0.07,0.035-0.1,0.056c-0.123,0.051-0.242,0.126-0.364,0.227c-0.094,0.078-0.147,0.196-0.144,0.318
		c0.002,0.122,0.062,0.236,0.159,0.31c0.093,0.069,0.186,0.113,0.271,0.145c1.911,1.717,3.8,2.484,6.115,2.484
		c3.904,0,7.242-1.475,10.822-4.783c0.431-0.396,0.839-0.799,1.25-1.209c2.16-2.115,4.394-4.303,8.353-4.303
		c2.27,0,4.312,0.755,5.781,2.125c-1.23,0.295-2.387,0.79-3.285,1.408c-1.152-0.853-2.434-1.035-3.318-1.035
		c-2.527,0-5.256,1.656-5.256,4.331c0,3.297,3.882,5.075,7.535,5.075c3.799,0,7.9-2.272,7.9-5.945c0-1.092-0.24-1.92-0.869-2.952
		c2.194,0.138,4.041,1.727,5.99,3.405l0.092,0.079c0.396,0.338,0.791,0.677,1.194,1.016c1.899,1.589,4.968,3.484,8.806,3.484
		c3.119,0,5.563-1.753,5.563-3.991C306.764,44.776,304.388,43.019,301.354,43.019 M275.809,43.718c0.955,0,1.768,0.205,2.413,0.605
		c-0.66,0.649-1.007,1.368-1.007,2.09c0,1.194,0.818,2.165,1.825,2.165c1.011,0,1.866-0.991,1.866-2.165
		c0-0.727-0.285-1.413-0.85-2.042c0.932-0.56,2.125-0.993,3.244-1.176c0.572,0.834,0.84,1.722,0.84,2.785
		c0,3.084-3.119,4.748-6.053,4.748c-2.82,0-5.668-1.199-5.668-3.878C272.42,45.006,273.814,43.718,275.809,43.718 M279.04,47.38
		c-0.359,0-0.63-0.415-0.63-0.967c0-0.431,0.248-0.892,0.737-1.369c0.374,0.427,0.563,0.887,0.563,1.369
		C279.711,46.938,279.403,47.38,279.04,47.38 M168.312,43.02l-0.26,0.159c-0.045,0.027-0.095,0.058-0.175,0.102
		c-0.109,0.07-0.226,0.132-0.338,0.192l-0.164,0.089c-0.039,0.025-0.07,0.04-0.133,0.071c-0.925,0.474-1.94,0.866-2.968,1.15
		c0.033-0.196,0.045-0.336,0.047-0.4c0.236-2.201-0.75-4.123-0.78-4.177c-1.423-3.327-4.967-7.415-6.492-9.088
		c0.764,0.038,1.539,0.003,2.318-0.101c4.687-0.579,11.27-4.42,12.575-5.202c0.027,0.019,0.057,0.039,0.09,0.062
		c1.007,0.696,4.072,2.816,8.451,4.195l2.314,0.661l1.35,0.243l0.145,0.01c0.388,0.063,0.746,0.111,1.084,0.146
		c-1.42,1.301-4.553,4.462-6.201,8.355c-0.027,0.055-0.053,0.115-0.079,0.177l-0.06,0.137c-0.014,0.025-0.055,0.146-0.068,0.196
		c-0.098,0.262-0.18,0.523-0.244,0.789c-0.035,0.12-0.585,1.988-0.098,3.919c-0.52-0.15-1.068-0.326-1.453-0.469
		c-0.014-0.005-0.027-0.009-0.04-0.013c-0.025-0.014-0.052-0.026-0.079-0.034c-2.078-0.654-3.68-1.832-4.664-2.712
		c-0.061-0.051-0.129-0.116-0.2-0.183c-0.312-0.294-0.515-0.474-0.757-0.488c-0.129-0.008-0.26,0.055-0.34,0.157
		C171.087,40.968,170.598,41.569,168.312,43.02 M150.284,24.979c-0.005,0.012-0.102,0.309-0.147,0.731
		c-0.006,0.039-0.011,0.077-0.016,0.113c-1.507-0.495-2.438-1.355-2.582-2.4c-0.153-1.117,0.597-2.302,1.949-3.088l0.517-0.26
		c0.08-0.041,0.154-0.08,0.226-0.11l0.772-0.255l1.291-0.271c0.091-0.006,0.196-0.017,0.302-0.032
		c0.501-0.042,1.02-0.064,1.541-0.064c5.391,0,10.404,2.294,12.197,3.207c-6.361,3.441-10.214,3.634-10.279,3.637
		c-1.682,0.176-3.18,0.167-4.439-0.026c-0.053-0.769,0.122-1.388,0.52-1.844c0.797-0.913,2.246-0.951,2.442-0.952
		c0.881,0.035,1.684,0.228,1.92,0.289c0.246,0.058,0.512,0.192,0.725,0.3l0.233,0.113c0.088,0.034,0.32,0.115,0.574,0.115
		c0.366,0,0.639-0.169,0.748-0.454c0.072-0.177,0.069-0.362-0.009-0.535c-0.163-0.362-0.604-0.54-0.729-0.583
		c-0.511-0.188-1.511-0.433-2.621-0.5l-0.331-0.019c-1.36-0.048-2.517,0.192-3.282,0.702
		C151.058,23.284,150.529,24.049,150.284,24.979 M162.123,14.644c1.01-0.785,1.883-1.684,2.53-2.379
		c0.392-0.419,0.755-0.849,1.13-1.298l0.36-0.47c0.01-0.009,0.062-0.073,0.072-0.084c0.002-0.002,0.07-0.078,0.072-0.081
		c0.159-0.184,0.32-0.364,0.494-0.537c0.701-0.682,1.53-1.251,2.395-1.644c0.869-0.387,1.816-0.569,2.703-0.518
		c0.896,0.052,1.807,0.344,2.645,0.851c0.455,0.256,0.902,0.585,1.411,1.031c0.094,0.107,0.324,0.353,0.616,0.665
		c0.258,0.276,0.564,0.604,0.867,0.933c0.031,0.049,0.064,0.083,0.084,0.1c0.079,0.097,0.167,0.196,0.256,0.295
		c0.072,0.08,0.145,0.161,0.283,0.313c0.053,0.061,0.107,0.122,0.168,0.186c0.016,0.025,0.033,0.049,0.051,0.069
		c0.242,0.262,2.002,2.146,3.365,3.144l-1.691,0.497l-2.521,0.919l-3.234,1.527l-3.246,1.785l-4.467-2.592l-1.867-0.944
		l-1.835-0.801l-1.375-0.441C161.656,14.991,161.902,14.807,162.123,14.644 M195.919,23.796c-0.128,1.405-1.44,2.162-2.554,2.56
		l-0.088,0.033c-0.016,0.003-0.121,0.032-0.137,0.037c-0.08,0.025-0.164,0.05-0.252,0.073c-0.023-1.176-0.523-2.049-0.539-2.074
		c-0.697-1.367-1.925-1.899-2.038-1.945c-0.883-0.431-1.954-0.65-3.185-0.65c-0.605,0-1.13,0.055-1.452,0.101
		c-0.877,0.099-1.5,0.304-1.843,0.587c-0.056,0.029-0.1,0.057-0.152,0.091c-0.046,0.03-0.088,0.075-0.119,0.124
		c-0.034,0.042-0.072,0.094-0.086,0.13c-0.141,0.242-0.154,0.524-0.031,0.736c0.179,0.312,0.572,0.4,1.061,0.184
		c0.009-0.003,0.096-0.05,0.105-0.055c0.088-0.048,0.183-0.09,0.271-0.13l0.125-0.059c0.434-0.156,1.17-0.343,2.211-0.343
		l0.252,0.003c0.098,0,0.173,0.009,0.27,0.019c0.754,0.067,2.126,0.325,2.844,1.295c0.425,0.573,0.566,1.336,0.423,2.271
		c-0.095,0.002-0.206,0.003-0.335,0.003c-1.557,0-4.779-0.198-8.887-1.529l-1.813-0.642l-2.764-1.199l-0.167,0.363l0.042-0.428
		l-0.444-0.214l3.398-1.736l0.813-0.356l2.459-0.878l1.625-0.401l0.869-0.123l0.814-0.096c0.166-0.012,0.424-0.023,0.758-0.023
		c0.99,0,2.971,0.108,5.099,0.826C192.844,20.493,196.086,21.798,195.919,23.796 M189.98,28.172l0.314-0.011
		c-0.572,0.602-1.85,1.54-4.242,1.54c-0.508,0-1.05-0.042-1.611-0.126c-2.057-0.302-4.547-1.15-7.429-2.523l-3.722-2.021
		l1.994-1.129c1.073,0.543,6.176,3.065,9.443,3.676c2.599,0.486,4.013,0.565,4.938,0.578L189.98,28.172z M171.063,23.793
		l-0.963-0.566l-0.427-0.225l1.816-1.066l1.571,0.836L171.063,23.793z M153.379,27.765c7.671,0.523,13.84-3.223,15.064-4.022
		l1.278,0.762l-5.381,2.746l-2.994,1.314c-0.012,0.003-0.024,0.007-0.035,0.011c-2.398,0.851-4.555,1.086-6.234,0.713
		c-1.54-0.394-2.396-1.029-2.87-1.632C152.595,27.704,152.988,27.74,153.379,27.765 M152.005,49.196
		c-0.041-0.005-0.088-0.008-0.149-0.012c-4.554-0.376-8.515-2.325-12.181-4.289c-2.418-1.296-5.259-2.84-8.007-4.469l-0.282-0.165
		c-0.829-0.485-1.613-0.943-2.397-1.335c-0.85-0.429-1.7-0.872-2.556-1.317c-2.754-1.435-5.602-2.918-8.744-4.096
		c-1.086-0.405-4.926-1.728-8.725-1.728c-2.278,0-4.058,0.489-5.288,1.452c-0.764,0.592-1.324,1.386-1.748,2.484
		c-1.788-0.071-3.395-0.023-4.963,0.128c-0.268-0.708-1.105-2.299-3.316-2.715c-0.078-0.011-0.151-0.021-0.266-0.043
		c-0.391-0.041-0.829-0.043-1.225,0c-0.026,0.002-0.055,0.01-0.084,0.02c-0.167,0.02-0.257,0.045-0.25,0.045h0.002
		c-1.631,0.327-2.704,1.429-2.8,2.876c-0.014,0.2,0.123,0.377,0.319,0.418c0.195,0.038,0.392-0.072,0.458-0.26
		c0.002-0.005,0.187-0.52,0.696-1.029c0.01-0.012,0.021-0.027,0.031-0.042c0.323-0.31,0.877-0.685,1.694-0.791
		c0.033,0,0.095,0,0.168-0.021l0.001,0.006c0.038-0.001,0.107,0.001,0.143-0.011c0.308-0.024,0.627-0.002,0.903,0.047
		c0.041,0.015,0.067,0.018,0.111,0.02c0.002,0.001,0.128,0.039,0.13,0.04c0.053,0.024,0.065,0.039,0.122,0.039l0.04,0.013
		c0.045,0.031,0.095,0.054,0.149,0.063c0.533,0.257,1.025,0.84,1.323,1.543c-0.186,0.031-0.391,0.067-0.531,0.093
		c-3.095,0.56-4.63,1.418-4.685,1.452c-1.107,0.551-2.097,1.276-2.946,2.159c-3.188-2.367-1.735-6.449-1.673-6.618
		c0.229-0.587,0.552-1.142,0.96-1.647c1.727-2.101,4.56-3.171,4.588-3.182c0.017-0.006,0.033-0.013,0.048-0.022
		c0.119-0.043,0.234-0.088,0.348-0.133l0.165-0.064c3.754-1.37,7.502-1.894,12.172-1.659c0.183,0.006,0.357,0.021,0.535,0.035
		l0.25,0.02c2.408,0.217,11.181,1.374,22.986,7.135c0.837,0.432,1.658,0.864,2.477,1.296l1.063,0.559
		c1.165,0.618,2.318,1.293,3.434,1.947c0.517,0.303,1.034,0.606,1.638,0.947c0.024,0.016,0.049,0.029,0.074,0.039l0.075,0.043
		c0.194,0.112,0.392,0.227,0.642,0.375c1.909,1.059,3.884,2.154,5.951,3.164c3.745,1.817,8.406,4.08,13.957,4.512
		c1.603,0.119,3.337,0.101,4.976-0.053c-0.869,1.004-3.115,2.799-8.076,2.799c-0.536,0-1.097-0.021-1.669-0.062
		C152.05,49.198,152.028,49.196,152.005,49.196 M110.111,45.452c-1.622-1.016-3.298-2.066-4.561-3.316
		c-1.201-1.21-2.469-2.665-2.532-4.733c1.943,0.186,3.588,0.446,4.652,0.637c3.209,0.598,5.997,1.335,8.286,2.189
		c0.929,0.351,1.754,0.696,2.537,1.061l0.141,0.059c0.011,0.005,0.025,0.012,0.033,0.015c0.006,0.003,0.012,0.007,0.019,0.01
		l0.118,0.058c0.014,0.006,0.027,0.012,0.041,0.016c1.617,0.799,7.63,4.013,6.633,7.133c-0.275,0.858-1.176,1.293-2.677,1.293
		c-2.895,0-7.307-1.638-10.204-3.04c-0.841-0.414-1.631-0.85-2.345-1.294L110.111,45.452z M90.118,39.011
		c0.549-0.299,1.155-0.561,1.895-0.813c0.071-0.024,0.14-0.048,0.235-0.075l0.685-0.21c0.457-0.113,0.921-0.224,1.4-0.301
		c0.398-0.065,0.905-0.139,1.279-0.192c0.012,0.588-0.118,1.133-0.386,1.626c-0.198,0.359-0.476,0.686-0.838,0.988
		c-0.909,0.712-1.971,1.073-3.156,1.073c-1.047,0-1.974-0.281-2.57-0.517c-0.112-0.044-0.218-0.089-0.32-0.135
		C88.82,39.904,89.417,39.419,90.118,39.011 M254.812,39.854c-1.015,0.671-2.704,0.839-4.21,0.445
		c-2.027-0.58-2.877-2.081-3.026-3.356C250.999,37.39,253.482,38.39,254.812,39.854 M248.296,34.429
		c0.282-0.257,0.638-0.47,1.026-0.623c0.381-0.11,0.748-0.165,1.096-0.165c1.348,0,2.186,0.83,2.639,1.508
		c0.045,0.076,0.086,0.153,0.127,0.231c0.045,0.084,0.09,0.169,0.141,0.255c0.074,0.129,0.198,0.202,0.356,0.199
		c0.239,0.009,0.409-0.177,0.409-0.4c0-0.062-0.014-0.12-0.039-0.172c-0.096-0.616-0.679-2.886-4.008-2.915
		c-0.729,0.057-3.086,0.432-3.834,2.884c-1.527-0.128-3.172-0.155-5.035-0.072c-0.063-0.207-0.107-0.319-0.107-0.319
		c-0.004-0.012-0.01-0.024-0.016-0.035c-0.92-2.417-3.199-3.642-6.773-3.642c-3.553,0-7.238,1.239-7.957,1.493
		c-0.402,0.14-0.797,0.284-1.143,0.432c-1.834,0.728-3.536,1.539-5.183,2.323l-1.117,0.531l-1.292,0.688
		c-2.964,1.577-6.029,3.208-8.867,4.965c-4.357,2.396-10.238,5.489-13.492,6.613c-2.559,0.81-4.95,1.082-7.307,0.831
		c-2.521-0.263-4.779-1.118-6.504-2.448c-0.057-0.054-0.109-0.106-0.158-0.157c0.652,0.056,1.326,0.085,2.013,0.085
		c4.19,0,7.835-1.008,9.633-1.609c1.417-0.474,2.974-1.121,4.764-1.981c3.548-1.75,12.473-6.797,12.564-6.85
		c3.963-2.276,8.229-4.652,12.981-6.49c5.517-2.143,10.5-3.361,15.236-3.721c2.246-0.177,3.965-0.177,6.245,0
		c2.629,0.194,5.675,0.953,7.946,1.982c2.317,1.055,5.154,3.033,5.505,6.458c0.177,1.877-0.487,3.43-2.029,4.735
		c-0.696-0.861-2.885-2.902-8.39-3.649C247.858,35.014,248.055,34.683,248.296,34.429 M216.606,47.535l0.406-0.127
		c0.31-3.432,7.763-6.643,10.95-7.863c0.794-0.297,1.623-0.579,2.455-0.835c2.161-0.616,4.543-1.156,6.879-1.561
		c0.754-0.114,1.572-0.209,2.438-0.284l0.016,0.184c-0.058,1.733-1.047,3.459-2.941,5.127c-0.015,0.014-0.029,0.028-0.041,0.043
		c-0.004,0.003-0.008,0.007-0.012,0.011l-0.105,0.085c-0.043,0.035-0.088,0.073-0.16,0.128c-0.426,0.359-0.895,0.72-1.42,1.091
		c-0.004,0.003-0.088,0.059-0.092,0.062l-0.119,0.08c-0.104,0.079-0.228,0.161-0.354,0.245l-0.129,0.087
		c-0.099,0.071-0.193,0.138-0.308,0.206l-0.127,0.085c-4.45,2.869-10.517,5.032-14.11,5.032c-1.226,0-2.094-0.258-2.492-0.718
		c-0.156-0.217-0.317-0.513-0.334-1.078H216.606z M187.189,15.761c0.017,0.003,0.108,0.014,0.125,0.015
		c0.275,0.017,0.566,0.048,0.83,0.087c0.705,0.113,1.049,0.246,1.209,0.332c-0.037,0.016-0.083,0.033-0.138,0.049
		c-0.016,0.002-0.03,0.005-0.042,0.008c-0.18,0.045-0.441,0.069-0.739,0.069c-0.396,0-1.569-0.051-2.992-0.577
		C185.965,15.722,186.594,15.719,187.189,15.761 M153.4,15.646c0.034-0.02,0.069-0.038,0.1-0.053
		c0.627-0.227,1.355-0.342,2.162-0.342c0.701,0,1.36,0.088,1.881,0.187c-2.142,0.689-3.993,0.249-3.993,0.249
		C153.491,15.673,153.442,15.659,153.4,15.646 M65.251,51.324c-2.928,0-6.039-1.667-6.039-4.756c0-1.074,0.252-1.937,0.813-2.778
		c1.132,0.179,2.322,0.608,3.251,1.169c-0.563,0.628-0.849,1.316-0.849,2.047c0,1.192,0.84,2.163,1.873,2.163
		c1.004,0,1.821-0.971,1.821-2.163c0-0.711-0.343-1.429-1-2.09c0.65-0.404,1.456-0.608,2.402-0.608c2,0,3.397,1.291,3.397,3.141
		C70.92,50.126,68.072,51.324,65.251,51.324 M64.3,47.967c-0.371,0-0.684-0.44-0.684-0.961c0-0.489,0.188-0.945,0.568-1.366
		c0.485,0.466,0.741,0.935,0.741,1.366C64.925,47.554,64.656,47.967,64.3,47.967"/>
	<path clip-path="url(#SVGID_2_)" fill="#FFFFFF" d="M301.186,108.758c-3.685,0-6.685,1.846-8.533,3.382
		c-0.404,0.346-0.802,0.686-1.203,1.035c-2.123,1.838-4.126,3.574-6.64,3.574h-0.418l0.222-0.358c0.719-1.11,0.975-1.9,0.975-2.996
		c0-3.439-3.899-5.554-7.5-5.554c-3.459,0-7.136,1.635-7.136,4.667c0,2.428,2.513,3.937,4.856,3.937c0.851,0,2.091-0.17,3.18-1.02
		l0.119-0.107l0.149,0.104c0.944,0.67,2.206,1.188,3.542,1.463l0.403,0.103l-0.283,0.294c-1.559,1.59-3.802,2.459-6.292,2.459
		c-4.119,0-6.413-2.232-8.63-4.409c-0.408-0.411-0.813-0.813-1.247-1.201c-3.497-3.235-6.757-4.673-10.544-4.673
		c-2.246,0-4.068,0.749-5.906,2.43c-0.086,0.023-0.167,0.055-0.24,0.109c0.087,0.082,0.173,0.128,0.263,0.182
		c0.029,0.018,0.061,0.029,0.081,0.029c0.417,0.16,0.88,0.119,1.341,0.225c2.027,0.474,4.24,2.312,4.481,4.431
		c0.056,0.539,0.011,1.148-0.221,1.635v0.005c-0.077,0.224-0.296,0.468-0.296,0.468s-1.358-0.728-2.52-0.921
		c-0.471-0.063-0.929-0.063-1.393-0.023c-0.126,0.008-0.233,0.013-0.338,0.013c-0.055,0.011-0.104,0.03-0.156,0.03
		c-0.826,0.125-1.522,0.369-2.08,0.661c0,0-0.03,0.006-0.095,0.047c-0.76,0.408-1.268,0.884-1.554,1.195v-0.006
		c0,0.006-0.008,0.021-0.008,0.034c-0.11,0.094-0.184,0.188-0.236,0.248c-0.002,0.019-0.009,0.049-0.029,0.063
		c-0.137,0.196-0.293,0.408-0.412,0.629c0,0-0.569,1.007-0.502,2.189c-1.663,0.131-3.281,0.105-4.721,0.022v-0.005l-0.714-0.043
		c0.574-4.787-6.745-9.671-6.745-9.671c-0.066-0.055-0.148-0.105-0.233-0.167c-0.438-0.307-0.704-0.472-0.704-0.472h0.004
		c-2.233-1.441-4.801-2.574-7.625-3.347c-1.786-0.485-3.589-0.879-5.814-0.677c-1.306,0.127-2.624,0.707-3.285,1.73
		c0,0-0.052,0.08-0.127,0.248c-0.164,0.304-0.269,0.649-0.285,1.032c-0.13,1.477,0.655,4.099,6.121,7.06
		c1.015,0.545,2.065,1.019,3.152,1.481c3.014,1.289,6.127,2.183,9.818,2.792c1.587,0.266,3.22,0.484,4.922,0.628
		c-0.037,0.075-0.05,0.174-0.079,0.255c-0.769,2.221-3.389,2.938-3.648,3.008c0,0,0.197-0.041,0,0.003v-0.003v0.003
		c-1.854,0.38-3.966,0.064-5.439-0.272c-0.156-0.042-0.312-0.07-0.449-0.104h-0.008c-0.06-0.021-0.137-0.04-0.2-0.054
		c-3.234-0.869-9.177-4.105-11.758-5.563c-0.423-0.243-0.852-0.481-1.27-0.719h-0.006c-1.144-0.653-2.295-1.278-3.426-1.943
		c-2.057-1.209-4.163-2.299-6.26-3.372c-0.604-0.307-1.23-0.606-1.854-0.906c-1.222-0.624-2.388-1.151-3.5-1.611
		c-4.254-1.94-7.858-2.717-10.607-2.973c-0.812-0.096-1.653-0.141-2.528-0.141h-0.184c-1.183,0.006-1.8,0.141-1.8,0.141
		c-0.114,0.011-0.239,0.031-0.382,0.067c-0.049,0.006-0.099,0.006-0.129,0.021c-0.146,0.023-0.316,0.058-0.491,0.093
		c-0.243,0.056-0.361,0.086-0.361,0.086c-0.167,0.037-0.33,0.087-0.496,0.13c-0.188,0.051-0.397,0.114-0.606,0.179
		c-0.1,0.023-0.174,0.064-0.275,0.098c-1.691,0.577-3.775,1.606-5.576,3.426c0,0-0.298,0.077-0.805,0.232
		c-0.326,0.111-0.656,0.219-0.98,0.345c-1.658,0.601-4.065,1.68-5.709,3.294c0,0-2.354-2.463-6.846-3.703
		c-1.096-1.354-2.357-2.292-3.48-2.927c-0.694-0.419-1.44-0.746-2.222-0.998c-0.636-0.205-1.015-0.269-1.015-0.269
		c-2.113-0.484-4.343-0.473-6.31-0.263c-1.125,0.094-2.338,0.306-3.604,0.617c-1.358,0.318-2.216,0.609-2.229,0.622
		c-2.384,0.721-4.74,1.666-6.662,2.493c-1.409,0.565-2.78,1.216-4.119,1.899c-0.058,0.028-0.086,0.048-0.086,0.048
		c-0.741,0.375-1.46,0.771-2.193,1.155c-2.52,1.371-5.056,2.734-7.652,4.187c-2.435,1.368-4.938,2.901-7.742,4.087
		c-1.358,0.573-2.785,1.104-4.336,1.596c-2.02,0.634-5.138,1.06-7.179,0.246c-1.345-0.543-2.519-1.467-2.884-2.991
		c0.028-0.018,0.032-0.036,0.063-0.054c1.412-0.092,2.967-0.258,4.623-0.532c1.287-0.199,2.539-0.452,3.758-0.751
		c2.301-0.575,4.478-1.315,6.521-2.171c1.977-0.842,3.846-1.658,5.551-2.987c0.73-0.593,1.467-1.288,2.155-2.121
		c0.632-0.771,1.348-1.938,1.348-3.117c0-0.457-0.12-0.923-0.39-1.352c-0.049-0.091-0.111-0.165-0.171-0.237l-0.02-0.036
		l-0.033-0.031c-0.93-1.134-2.74-1.574-4.922-1.483c-2.392,0.107-4.674,0.771-6.737,1.539c-1.992,0.752-3.771,1.797-5.447,2.885
		c-1.734,1.142-3.244,2.394-4.471,3.908c-1.258,1.532-2.517,3.283-2.603,5.73h-0.016c-1.74,0.114-3.582,0.145-5.371,0
		c0-0.014-0.017-0.036-0.017-0.053c0.017-1.263-0.6-2.344-0.6-2.344c-0.969-1.845-3.016-2.836-5.539-2.687h-0.022
		c-0.148,0-0.29,0.028-0.439,0.034c-0.072,0.009-0.158,0.02-0.218,0.023c-0.038,0-0.067,0.008-0.096,0.012
		c-0.046,0.015-0.084,0.024-0.132,0.032c-0.863,0.137-1.585,0.366-2.184,0.674c-0.783-1.069-0.399-2.623,0.099-3.498
		c0.91-1.584,2.645-2.703,4.906-2.981c0.156-0.021,0.412,0.016,0.598-0.043l0.011-0.015c0.097-0.037,0.181-0.103,0.206-0.235
		c-0.037-0.04-0.099-0.068-0.153-0.087c-1.849-1.676-3.664-2.426-5.894-2.426c-3.803,0-7.051,1.441-10.545,4.689
		c-0.425,0.387-0.842,0.782-1.265,1.196c-2.202,2.165-4.498,4.407-8.62,4.407c-2.489,0-4.727-0.865-6.289-2.467l-0.289-0.292
		l0.414-0.092c1.338-0.28,2.591-0.8,3.54-1.478l0.135-0.099l0.141,0.11c1.078,0.85,2.323,1.024,3.172,1.024
		c2.337,0,4.863-1.507,4.863-3.939c0-3.031-3.685-4.671-7.134-4.671c-3.615,0-7.502,2.123-7.502,5.547
		c0,1.104,0.25,1.899,0.97,3.007l0.223,0.354h-0.42c-2.5,0-4.517-1.74-6.641-3.575c-0.39-0.339-0.799-0.685-1.199-1.029
		c-1.864-1.54-4.848-3.383-8.547-3.383c-2.902,0-5.169,1.579-5.169,3.591c0,2.015,2.21,3.592,5.022,3.592
		c2.845,0,4.813-1.465,4.813-2.771c0-0.321-0.101-0.639-0.194-0.872c-0.089-0.007-0.166-0.007-0.263-0.007
		c-0.256,0-0.878,0.087-1.151,0.868c-0.549,1.506-1.286,2.385-3.335,2.385c-2.162,0-4.496-1.222-4.496-3.195
		c0-1.82,2.059-3.195,4.773-3.195c3.1,0,5.688,1.932,7.819,3.815c2.192,1.941,5.121,4.168,8.471,4.168c0.257,0,0.522,0,0.771-0.03
		l0.117-0.007l0.074,0.083c1.736,1.818,4.536,2.959,7.311,2.959c5.468,0,9.299-2.729,12.32-5.407
		c0.376-0.336,0.735-0.694,1.082-1.046c2.012-1.968,3.912-3.836,7.028-3.836c1.934,0,3.578,0.625,5.246,1.991
		c-0.061,0.008-0.112,0.025-0.151,0.025c-0.949,0.105-1.903,0.444-2.598,0.812c-1.781,0.931-3.784,2.927-2.995,5.639
		c0.062,0.208,0.212,0.464,0.245,0.682c0,0-3.46,1.951-2.648,6.315c0,0.052,0.004,0.078,0.004,0.078
		c0.09,0.676,0.334,1.304,0.614,1.923c1.243,2.612,3.675,4.198,6.509,5.354c1.706,0.682,3.301,1.004,5.386,1.344
		c6.637,1.052,14.582,0.33,20.124-1.11c5.152-1.344,9.467-3.514,13.58-5.824c5.342-3.021,9.725-6.302,15.16-9.095
		c1.896-0.977,3.768-1.832,5.975-2.559c0,0,0.229-0.086,0.654-0.211c0.08-0.022,0.173-0.05,0.259-0.072
		c0.069-0.021,0.126-0.036,0.192-0.063c1.273-0.361,3.441-0.882,5.507-0.935c0.837-0.044,1.683-0.038,2.574,0.031
		c0.533,0.04,1.168,0.079,1.702,0.158c0.119,0.012,0.247,0.027,0.364,0.044c1.099,1.332,1.988,2.818,2.647,4.122
		c0.467,0.983,0.905,2.131,1.2,3.377c-1.791,0.339-3.189,0.837-4.156,1.254c-0.037,0.013-0.067,0.033-0.111,0.052
		c-0.156,0.075-0.312,0.131-0.442,0.192c-0.058,0.038-0.111,0.064-0.182,0.097c-0.515,0.255-0.79,0.431-0.79,0.431h0.008
		c-0.491,0.303-0.967,0.633-1.395,0.998c-1.328,1.148-2.475,2.493-2.876,4.248c-0.094,0.408-0.159,0.991-0.145,1.441
		c0.054,1.291,0.586,2.173,1.345,2.841c0.381,0.325,1.604,1.132,3.401,0.906c0.072-0.017,0.132-0.024,0.203-0.039
		c0.115-0.017,0.245-0.039,0.367-0.069h0.008c0.318-0.079,0.64-0.204,0.977-0.351c3.566-1.641,5.243-6.161,4.745-11.313
		c-0.002-0.101-0.015-0.181-0.015-0.181c1.816-0.268,4.387-0.496,7.298,0.034l-0.019,0.104c0,0.152-0.019,0.315-0.041,0.479
		l-0.017,0.11v0.079c-0.087,1.215-0.03,2.559,0.26,3.98c0.007,0.027,0.017,0.048,0.019,0.063c0.646,3.254,2.339,5.929,4.982,6.917
		c3.335,1.255,6.201-0.797,5.873-4.119c-0.629-4.771-5.895-6.869-8.509-7.623c-0.476-0.131-0.957-0.255-1.455-0.357
		c0.38-1.712,0.929-3.009,1.121-3.439c0.614-1.271,1.408-2.604,2.407-3.843c0,0-0.008,0,0,0c0.025-0.024,0.037-0.038,0.07-0.058
		c0.009-0.022,0.027-0.05,0.035-0.084h0.021c0.096-0.091,0.167-0.142,0.167-0.142l0.477-0.054h-0.011
		c0.216-0.037,0.434-0.056,0.667-0.079c0.025,0,0.059-0.009,0.059-0.009h0.078c0.039-0.012,0.057-0.012,0.057-0.012
		c0.299-0.032,0.57-0.042,0.791-0.064c3.045-0.231,5.892,0.3,8.333,1.013c5.65,1.675,10.172,4.563,14.62,7.415
		c0,0,9.244,5.94,15.103,8.552c4.491,1.939,9.595,3.337,15.518,3.815c7.226,0.571,15.151-0.274,19.558-3.267
		c1.413-0.986,2.615-2.241,3.314-3.761c0.242-0.555,0.484-1.291,0.576-1.924c0.389-3.02-0.99-4.723-2.678-6.2
		c0.618-0.988,0.85-2.289,0.04-3.89c-0.019-0.055-0.053-0.102-0.087-0.148v-0.018c-0.062-0.126-0.136-0.241-0.211-0.361
		c-0.008-0.018-0.014-0.035-0.031-0.046c-0.83-1.224-2.278-2.172-3.686-2.621c-0.353-0.117-0.694-0.237-1.1-0.285
		c-0.103-0.015-0.199-0.046-0.309-0.061c1.684-1.4,3.337-2.051,5.295-2.051c3.115,0,5.016,1.868,7.024,3.851
		c0.354,0.346,0.723,0.702,1.089,1.048c3.013,2.667,6.842,5.4,12.308,5.4c2.781,0,5.588-1.142,7.313-2.968l0.092-0.077l0.111,0.019
		c0.233,0.021,0.512,0.021,0.762,0.021c3.352,0,6.277-2.228,8.465-4.174c2.132-1.877,4.72-3.811,7.815-3.811
		c2.724,0,4.77,1.374,4.77,3.194c0,1.972-2.329,3.19-4.496,3.19c-2.047,0-2.768-0.864-3.329-2.389
		c-0.259-0.771-0.88-0.855-1.132-0.855c-0.102,0-0.191,0-0.262,0.008c-0.102,0.229-0.205,0.549-0.205,0.873
		c0,1.311,1.979,2.764,4.822,2.764c2.817,0,5.011-1.573,5.011-3.591C306.364,110.332,304.085,108.758,301.186,108.758
		 M64.329,114.129l-0.172,0.146l-0.143-0.146c-0.525-0.53-0.798-1.124-0.798-1.772c0-0.752,0.488-1.363,1.084-1.363
		c0.584,0,1.024,0.585,1.024,1.363C65.324,112.953,64.981,113.546,64.329,114.129 M59.839,116.011l-0.078-0.114
		c-0.656-0.924-0.95-1.916-0.95-3.103c0-3.338,3.315-5.145,6.44-5.145c3.021,0,6.068,1.315,6.068,4.269
		c0,2.082-1.56,3.541-3.797,3.541c-1.13,0-2.071-0.27-2.818-0.803l-0.217-0.166l0.205-0.192c0.668-0.604,1.028-1.277,1.028-1.941
		c0-0.965-0.632-1.762-1.42-1.762c-0.805,0-1.473,0.804-1.473,1.762c0,0.692,0.298,1.347,0.877,1.919l0.207,0.203l-0.244,0.146
		c-1.014,0.665-2.393,1.173-3.693,1.366L59.839,116.011z M105.265,116.96c1.334-1.34,3.085-2.412,4.758-3.462
		c0.771-0.483,1.571-0.919,2.398-1.321c4.583-2.228,12.379-4.817,13.437-1.506c1.117,3.486-5.203,6.821-7.003,7.69l0.102-0.058
		c-0.066,0.032-0.128,0.062-0.204,0.092c0.043-0.012,0.064-0.03,0.102-0.034l-0.208,0.088c-0.779,0.359-1.617,0.71-2.551,1.057
		c-2.466,0.923-5.345,1.65-8.353,2.208c-1.414,0.262-3.197,0.525-5.111,0.686h-0.01C102.507,119.936,103.942,118.284,105.265,116.96
		 M88.506,118.405c0.919-0.373,2.569-0.819,4.266-0.338c0.25,0.064,0.667,0.217,1.119,0.465c0.274,0.167,1.774,1.085,2.017,2.938
		c0.011,0.209,0.034,0.446,0.03,0.688c0,0.081-0.019,0.146-0.019,0.23l-0.409-0.056h-0.009c-0.91-0.094-1.808-0.266-2.664-0.496
		c-0.241-0.075-0.477-0.146-0.707-0.21c-0.127-0.034-0.226-0.07-0.34-0.113c-0.658-0.226-1.281-0.489-1.864-0.813
		c-0.898-0.514-1.654-1.156-2.207-1.926C87.97,118.642,88.221,118.515,88.506,118.405 M156.872,113.254
		c-5.358,0.412-9.756,2.504-13.813,4.475c-2.074,1.001-4.031,2.085-5.981,3.175c-1.96,1.101-3.841,2.281-5.819,3.329
		c-3.949,2.08-7.91,4.211-12.413,5.863c-1.105,0.405-2.304,0.703-3.508,1.06c-3.466,1.019-7.36,1.956-11.565,2.167
		c-4.817,0.241-8.71-0.373-12.328-1.679c-0.186-0.075-0.37-0.151-0.57-0.241l0.012,0.021c0,0-2.933-1.095-4.757-3.303
		c-0.401-0.502-0.76-1.086-1.024-1.761c0,0-1.744-4.702,2.045-7.248c0.025-0.017,0.039-0.021,0.063-0.036
		c0.836,0.927,1.853,1.72,3.062,2.323l0.01,0.003c0,0,1.717,0.987,5.236,1.529h0.012l0.293,0.052
		c-0.057,0.241-0.117,0.485-0.223,0.753c-0.279,0.637-0.796,1.208-1.675,1.563c-0.092,0.031-0.178,0.054-0.262,0.086
		c-0.492,0.108-0.996,0.128-1.473,0.049h-0.041c0,0-0.033,0-0.049-0.016c0,0-0.038-0.002-0.061-0.008
		c-0.023-0.011-0.057-0.018-0.089-0.018c-0.039-0.008-0.05-0.019-0.082-0.019l-0.03-0.005c-0.384-0.094-0.706-0.231-0.974-0.39
		h-0.009c-0.026-0.013-0.047-0.03-0.062-0.042c-0.288-0.17-0.542-0.378-0.756-0.611c-0.454-0.522-0.616-1.013-0.616-1.013
		c0.091,1.49,1.367,2.39,2.818,2.569l0.058,0.004c0.622,0.072,1.151,0.011,1.62-0.132c0.011-0.002,0.039-0.008,0.058-0.021
		c0,0,0.027-0.011,0.041-0.018c0,0,0.039-0.009,0.064-0.014c0.011-0.006,0.032-0.015,0.055-0.015
		c0.013-0.014,0.024-0.019,0.037-0.021c0.325-0.117,0.607-0.274,0.84-0.437c1.201-0.852,1.517-2.155,1.517-2.155h0.069
		c1.559,0.183,3.434,0.265,5.592,0.159c0.399,1.117,0.92,1.954,1.719,2.576c3.324,2.587,10.257,0.925,13.636-0.331
		c4.088-1.533,7.668-3.586,11.259-5.396c0.864-0.438,1.753-0.969,2.658-1.486c2.637-1.563,5.376-3.06,8.019-4.487
		c3.484-1.858,7.61-3.936,12.323-4.332c0.067-0.003,0.122-0.003,0.171-0.01h-0.012c1.866-0.133,3.418-0.057,4.717,0.169
		c0.045,0.007,0.092,0.012,0.135,0.018c0.346,0.073,0.67,0.134,0.98,0.22c1.836,0.537,3.403,1.751,4.678,3.203
		C160.671,113.159,158.723,113.104,156.872,113.254 M166.337,128.011c-0.3,0.711-0.655,1.384-1.03,2.044
		c-0.07,0.096-0.14,0.196-0.202,0.296c-0.083,0.132-0.172,0.261-0.278,0.394c-0.094,0.146-0.207,0.277-0.317,0.422
		c-2.495,2.87-4.797,2.192-5.611,1.811c-0.057-0.031-0.117-0.062-0.176-0.091c0,0-0.021-0.007-0.029-0.016
		c-3.109-1.78-0.398-5.906-0.398-5.906c0.089-0.152,0.191-0.291,0.301-0.427c1.288-1.727,3.675-3.728,7.996-4.562
		c0.065-0.017,0.148-0.029,0.218-0.035C167.165,123.827,167.135,125.905,166.337,128.011 M180.819,123.788
		c0.131,0.076,0.25,0.158,0.377,0.236c0.021,0.024,0.062,0.039,0.105,0.06c0.669,0.458,1.255,0.95,1.785,1.495
		c0.008,0.014,0.008,0.014,0.018,0.021h-0.01c0.271,0.287,0.533,0.568,0.757,0.877c0.047,0.074,0.11,0.154,0.177,0.242
		c0.08,0.117,0.149,0.217,0.221,0.346c0.687,1.073,1.509,2.813,0.98,4.471c-0.115,0.387-0.703,1.701-2.597,1.945
		c-0.239,0.026-0.519,0.026-0.792,0c-2.434-0.286-4.284-3.019-4.504-3.366c-1.635-2.575-1.688-5.538-1.57-7.076
		c0.018-0.12,0.033-0.229,0.045-0.338c0.027-0.195,0.09-0.741,0.09-0.741S178.284,122.216,180.819,123.788 M177.27,115.499
		L177.27,115.499c0,0-1.681,2.253-2.271,5.769c-2.869-0.482-5.371-0.427-7.438-0.129c-0.44-2.816-1.345-4.945-2.474-6.563
		c1.571,0.422,2.886,1.14,4.074,1.992l1.159,0.939c0,0,0.008,0.019,0.042,0.05c0.057,0.048,0.1,0.083,0.162,0.131
		c0.266,0.224,0.678,0.573,0.736,0.608c0.09,0.044,0.689-0.544,1.036-0.86c0.069-0.061,0.134-0.119,0.226-0.181
		c0.372-0.295,2.244-1.604,4.072-2.345c0.105-0.038,0.214-0.089,0.338-0.111c0.034-0.028,0.059-0.032,0.1-0.053
		c0.047-0.015,0.125-0.043,0.182-0.053c0.105-0.037,0.203-0.077,0.318-0.104c0.154-0.03,0.324-0.072,0.48-0.104
		C177.757,114.807,177.504,115.135,177.27,115.499 M255.405,119.455c-1.271,1.769-3.37,2.683-5.876,3.214
		c-0.775,0.178-1.58,0.302-2.365,0.384l-0.014-0.01c-0.082-1.729,0.955-3.675,3.342-4.361
		C252.211,118.236,254.21,118.405,255.405,119.455 M238.425,122.826c-2.938-0.466-5.972-1.136-8.731-1.947
		c-1.449-0.489-12.66-4.376-13.079-8.884c-0.008-0.055-0.008-0.109-0.008-0.163v-0.028c0.018-0.582,0.186-0.974,0.401-1.281
		c1.963-2.282,10.49,0.18,16.404,3.731c0.249,0.16,0.509,0.321,0.747,0.488c0.036,0.024,0.07,0.046,0.117,0.064
		c0.121,0.08,0.226,0.154,0.334,0.229c0.146,0.1,0.305,0.196,0.441,0.298c2.106,1.513,5.477,4.45,5.201,7.705v0.005
		C239.571,122.971,238.965,122.899,238.425,122.826 M258.544,125.094c-0.351,3.419-3.029,5.549-5.737,6.784
		c-2.256,1.022-5.326,1.814-8.083,2.028c-2.245,0.168-4.089,0.168-6.306,0c-5.618-0.437-10.868-2.019-15.368-3.762
		c-4.079-1.584-7.771-3.548-11.337-5.564c0,0-0.018,0-0.018-0.004c-0.97-0.544-1.92-1.104-2.881-1.646
		c-5.192-2.912-11.274-6.116-11.41-6.182c-1.45-0.69-3.027-1.375-4.627-1.913c-3.139-1.047-7.474-1.872-11.561-1.5h-0.047
		c-0.13,0.006-0.233,0.029-0.351,0.047c-0.332,0.04-0.635,0.09-0.635,0.09v-0.032c0.218-0.281,0.84-0.801,1.193-1.101
		c0.051-0.046,0.111-0.092,0.171-0.146c0.029-0.012,0.046-0.018,0.063-0.046c0.02-0.009,0.031-0.025,0.031-0.025v0.009
		c1.654-1.159,3.751-1.943,6.234-2.206c2.702-0.281,5.219,0.14,7.469,0.847c2.058,0.709,5.13,2.187,8.275,3.816
		c0,0,9.618,5.43,12.844,7.102c0.864,0.46,1.729,0.912,2.601,1.385c1.757,0.824,3.598,1.729,5.563,2.543
		c0,0,13.519,6.12,16.24-1.818c1.894,0.027,3.945-0.037,5.576-0.104c0.138,0.578,0.672,2.162,2.612,2.73
		c0.421,0.11,1.692,0.385,2.925-0.259c1.418-0.775,1.677-2.233,1.677-2.233c-0.088,0.169-0.166,0.329-0.259,0.485
		c-0.532,0.794-1.838,2.207-4.19,1.514c-0.434-0.155-0.843-0.401-1.185-0.694c-0.408-0.436-0.68-0.99-0.806-1.601
		c2.294-0.404,4.469-0.942,6.234-1.882v0.005c0,0,1.541-0.675,2.55-1.987c0.018-0.002,0.023-0.017,0.031-0.022
		C257.469,120.841,258.789,122.505,258.544,125.094 M279.154,114.872l-0.155-0.141c-0.646-0.588-0.989-1.186-0.989-1.778
		c0-0.776,0.437-1.375,1.017-1.375c0.601,0,1.077,0.616,1.077,1.375c0,0.646-0.268,1.245-0.78,1.77L279.154,114.872z
		 M283.571,116.486l-0.081,0.117l-0.141-0.02c-1.281-0.193-2.676-0.701-3.69-1.353l-0.234-0.158l0.202-0.201
		c0.574-0.593,0.879-1.226,0.879-1.919c0-0.958-0.68-1.77-1.479-1.77c-0.783,0-1.412,0.799-1.412,1.77
		c0,0.655,0.35,1.326,1.034,1.954l0.202,0.183l-0.216,0.16c-0.747,0.524-1.695,0.799-2.826,0.799c-2.229,0-3.788-1.46-3.788-3.541
		c0-2.944,3.042-4.268,6.067-4.268c3.131,0,6.452,1.806,6.452,5.154C284.54,114.575,284.22,115.563,283.571,116.486"/>
	<path clip-path="url(#SVGID_2_)" fill="#8B0E04" d="M301.186,108.357c-3.809,0-6.881,1.891-8.793,3.479
		c-0.406,0.346-0.805,0.686-1.213,1.042c-1.971,1.706-3.838,3.322-6.063,3.461c0.631-1.039,0.871-1.864,0.871-2.945
		c0-3.677-4.102-5.953-7.9-5.953c-3.653,0-7.535,1.776-7.535,5.067c0,2.678,2.729,4.336,5.256,4.336c0.885,0,2.161-0.178,3.32-1.026
		c0.904,0.618,2.063,1.107,3.289,1.392c-1.466,1.375-3.51,2.129-5.791,2.129c-3.977,0-6.199-2.184-8.346-4.291
		c-0.414-0.416-0.824-0.823-1.26-1.213c-3.572-3.306-6.908-4.778-10.815-4.778c-2.327,0-4.216,0.763-6.109,2.474
		c-0.101,0.035-0.19,0.081-0.271,0.141c-0.097,0.069-0.157,0.179-0.165,0.297c-0.008,0.119,0.037,0.234,0.124,0.316
		c0.106,0.102,0.21,0.163,0.327,0.233c0.033,0.021,0.092,0.043,0.148,0.061v0.002c0.294,0.111,0.588,0.141,0.871,0.168
		c0.173,0.017,0.349,0.032,0.522,0.072c1.833,0.429,3.95,2.112,4.175,4.082c0.057,0.549-0.01,1.054-0.185,1.422
		c-0.009,0.021-0.017,0.041-0.022,0.063c-0.01,0.022-0.021,0.047-0.036,0.072c-0.485-0.233-1.453-0.659-2.343-0.809
		c-0.5-0.066-1.004-0.064-1.467-0.024c-0.118,0.006-0.219,0.012-0.391,0.018c-0.008,0.002-0.133,0.026-0.143,0.028
		c-0.795,0.12-1.525,0.352-2.175,0.687c-0.046,0.018-0.091,0.039-0.129,0.064c-0.759,0.408-1.292,0.886-1.614,1.229
		c-0.039,0.032-0.073,0.071-0.098,0.115c-0.07,0.068-0.131,0.138-0.195,0.214c-0.035,0.039-0.062,0.084-0.078,0.133
		c-0.016,0.021-0.028,0.037-0.035,0.047c-0.131,0.186-0.27,0.383-0.377,0.581c-0.023,0.041-0.508,0.909-0.557,2.015
		c-1.365,0.089-2.9,0.074-4.234-0.001c-0.02-0.004-0.039-0.007-0.061-0.009l-0.309-0.019c0.162-4.824-6.652-9.428-6.918-9.603
		c-0.054-0.045-0.115-0.087-0.26-0.188c-0.285-0.2-0.498-0.34-0.617-0.417c-0.043-0.047-0.098-0.084-0.16-0.104
		c-2.27-1.455-4.85-2.583-7.672-3.355c-2.037-0.554-3.759-0.888-5.959-0.688c-1.568,0.151-2.907,0.865-3.582,1.91
		c0,0-0.064,0.098-0.144,0.276c-0.202,0.377-0.313,0.782-0.331,1.187c-0.154,1.75,0.819,4.462,6.331,7.446
		c1.108,0.597,2.231,1.092,3.184,1.497c3.071,1.314,6.22,2.21,9.909,2.819c1.555,0.26,3.013,0.453,4.441,0.586
		c-0.777,1.796-2.977,2.441-3.274,2.521c-0.011,0.002-0.022,0.006-0.032,0.01c-1.408,0.278-3.221,0.178-5.211-0.277
		c-0.094-0.024-0.186-0.045-0.275-0.065l-0.179-0.041c-0.006-0.001-0.012-0.003-0.019-0.004c-0.063-0.019-0.135-0.037-0.184-0.048
		c-3.239-0.871-9.236-4.152-11.662-5.521l-1.271-0.722c-0.013-0.008-0.026-0.014-0.04-0.02c-0.429-0.244-0.859-0.485-1.289-0.727
		c-0.702-0.393-1.403-0.785-2.097-1.193c-2.063-1.211-4.147-2.291-6.281-3.383c-0.565-0.288-1.151-0.569-1.735-0.851l-0.118-0.056
		c-1.137-0.582-2.291-1.114-3.516-1.62c-3.672-1.674-7.283-2.686-10.727-3.006c-0.813-0.095-1.679-0.144-2.575-0.144h-0.186
		c-1.204,0.007-1.85,0.143-1.837,0.143c-0.132,0.013-0.276,0.037-0.418,0.072c-0.024,0.002-0.072,0.011-0.117,0.021l-0.001-0.001
		c-0.144,0.022-0.308,0.055-0.516,0.097l-0.359,0.085c-0.11,0.025-0.218,0.055-0.327,0.085l-0.186,0.051
		c-0.193,0.052-0.407,0.116-0.595,0.176c-0.079,0.018-0.147,0.044-0.218,0.072l-0.096,0.035c-2.21,0.755-4.111,1.913-5.654,3.445
		c-0.131,0.037-0.381,0.107-0.727,0.213l-0.223,0.075c-0.258,0.088-0.518,0.176-0.764,0.272c-1.646,0.597-3.905,1.611-5.571,3.118
		c-0.756-0.685-2.983-2.474-6.618-3.503c-0.969-1.171-2.15-2.153-3.503-2.918c-0.691-0.418-1.466-0.766-2.305-1.036
		c-0.648-0.209-1.044-0.276-1.049-0.276c-1.882-0.433-4.096-0.523-6.433-0.272c-1.119,0.095-2.352,0.305-3.661,0.626
		c-0.02,0.005-1.703,0.408-2.253,0.635l-0.001-0.007c-1.987,0.603-4.18,1.422-6.696,2.505c-1.273,0.512-2.631,1.139-4.144,1.911
		c-0.002,0.001-0.09,0.051-0.092,0.052c-0.487,0.245-0.964,0.501-1.441,0.756l-2.344,1.263c-2.002,1.086-4.02,2.181-6.075,3.331
		c-0.476,0.268-0.955,0.541-1.438,0.817c-1.981,1.134-4.029,2.306-6.264,3.25c-1.398,0.59-2.805,1.107-4.301,1.582
		c-1.365,0.43-2.929,0.676-4.29,0.676c-1.04,0-1.922-0.142-2.618-0.419c-1.297-0.523-2.143-1.298-2.52-2.305
		c1.412-0.104,2.834-0.274,4.233-0.506c1.266-0.196,2.541-0.452,3.793-0.759c2.222-0.555,4.435-1.292,6.581-2.191
		c1.799-0.766,3.837-1.633,5.647-3.044c0.845-0.687,1.568-1.398,2.212-2.178c0.537-0.656,1.438-1.966,1.438-3.371
		c0-0.553-0.155-1.094-0.437-1.542c-0.059-0.109-0.132-0.201-0.197-0.282c-0.019-0.032-0.043-0.06-0.071-0.086
		c-0.954-1.165-2.789-1.73-5.248-1.629c-2.066,0.093-4.245,0.589-6.86,1.564c-2.146,0.81-3.996,1.932-5.526,2.925
		c-1.944,1.279-3.394,2.547-4.56,3.988c-1.196,1.456-2.476,3.201-2.673,5.605c-1.679,0.1-3.228,0.101-4.634,0.005
		c-0.074-1.209-0.618-2.176-0.637-2.209c-1.04-1.98-3.229-3.05-5.916-2.899c-0.096,0-0.189,0.009-0.284,0.019
		c-0.056,0.007-0.112,0.014-0.218,0.021c-0.06,0.007-0.128,0.015-0.154,0.018c-0.018,0-0.132,0.013-0.15,0.016
		c-0.022,0.003-0.12,0.026-0.141,0.033c-0.732,0.116-1.392,0.303-1.967,0.554c-0.465-0.962-0.034-2.212,0.291-2.782
		c0.871-1.517,2.55-2.531,4.612-2.785c0.023-0.003,0.049-0.004,0.114-0.004c0.116,0.001,0.354,0.008,0.553-0.055
		c0.032-0.011,0.067-0.028,0.098-0.051c0.211-0.101,0.348-0.279,0.391-0.508c0.022-0.122-0.014-0.248-0.097-0.341
		c-0.071-0.079-0.158-0.129-0.234-0.163c-1.913-1.715-3.8-2.48-6.11-2.48c-3.913,0-7.249,1.479-10.814,4.793
		c-0.429,0.391-0.849,0.789-1.276,1.207c-2.147,2.11-4.367,4.293-8.34,4.293c-2.274,0-4.313-0.752-5.779-2.127
		c1.229-0.292,2.379-0.782,3.281-1.401c1.142,0.854,2.431,1.036,3.323,1.036c2.531,0,5.263-1.659,5.263-4.34
		c0-3.294-3.882-5.071-7.535-5.071c-3.8,0-7.902,2.274-7.902,5.947c0,1.097,0.238,1.924,0.862,2.949
		c-2.218-0.141-4.091-1.759-6.067-3.466l-1.206-1.036c-1.919-1.585-5.004-3.475-8.802-3.475c-3.124,0-5.57,1.753-5.57,3.991
		c0,2.239,2.382,3.992,5.422,3.992c3.119,0,5.214-1.64,5.214-3.17c0-0.31-0.073-0.643-0.222-1.021
		c-0.057-0.143-0.189-0.24-0.342-0.252c-0.099-0.007-0.185-0.008-0.293-0.008c-0.266,0-1.161,0.082-1.527,1.132
		c-0.502,1.376-1.122,2.121-2.959,2.121c-1.97,0-4.097-1.069-4.097-2.795c0-1.594,1.881-2.795,4.374-2.795
		c2.954,0,5.476,1.878,7.553,3.714c2.244,1.987,5.264,4.269,8.737,4.269c0.248,0,0.501-0.001,0.725-0.022
		c1.818,1.869,4.702,3.027,7.547,3.027c5.614,0,9.513-2.783,12.587-5.509c0.382-0.341,0.746-0.705,1.113-1.074
		c1.947-1.905,3.787-3.706,6.73-3.706c1.568,0,2.915,0.423,4.268,1.354c-0.671,0.153-1.355,0.403-1.956,0.72
		c-2.085,1.091-4.019,3.268-3.193,6.108c0.029,0.096,0.073,0.201,0.119,0.309c0.013,0.029,0.026,0.06,0.038,0.09
		c-0.841,0.601-3.286,2.704-2.576,6.483c0,0.018,0.005,0.113,0.007,0.131c0.101,0.758,0.383,1.454,0.65,2.042
		c1.132,2.381,3.267,4.146,6.721,5.553c1.689,0.675,3.225,1.001,5.472,1.367c2.113,0.335,4.434,0.505,6.898,0.505
		c4.539,0,9.419-0.592,13.39-1.623c5.313-1.386,9.712-3.637,13.675-5.863c2.3-1.301,4.446-2.663,6.52-3.981
		c2.848-1.809,5.538-3.518,8.627-5.104c2.209-1.14,3.978-1.897,5.931-2.54c0.008-0.003,0.227-0.084,0.621-0.2l0.327-0.093
		c0.056-0.018,0.109-0.033,0.127-0.043c1.127-0.32,3.328-0.865,5.419-0.919c0.818-0.045,1.648-0.039,2.523,0.029l0.24,0.018
		c0.467,0.035,0.987,0.071,1.452,0.14c0.063,0.007,0.129,0.014,0.194,0.022c0.896,1.107,1.759,2.461,2.495,3.917
		c0.455,0.96,0.815,1.932,1.072,2.896c-1.354,0.283-2.636,0.684-3.8,1.188c-0.037,0.014-0.071,0.029-0.151,0.068
		c-0.08,0.038-0.16,0.071-0.235,0.103l-0.251,0.114c-0.042,0.027-0.08,0.047-0.142,0.074c-0.539,0.268-0.828,0.451-0.828,0.451
		c-0.014,0.01-0.028,0.02-0.041,0.031c-0.541,0.336-0.996,0.664-1.392,1.003c-1.687,1.457-2.641,2.875-3.004,4.461
		c-0.107,0.465-0.17,1.086-0.155,1.547c0.053,1.272,0.538,2.295,1.485,3.129c0.23,0.196,1.605,1.263,3.71,0.998
		c0.012-0.002,0.196-0.037,0.207-0.04c0.128-0.017,0.272-0.043,0.313-0.064c0.033,0,0.073-0.005,0.105-0.013
		c0.303-0.075,0.624-0.189,1.048-0.376c3.571-1.642,5.475-6.055,4.993-11.513c2.354-0.317,4.42-0.304,6.436,0.022
		c-0.007,0.064-0.016,0.131-0.023,0.195l-0.016,0.112c-0.002,0.008-0.003,0.097-0.004,0.105c-0.098,1.364-0.009,2.74,0.285,4.151
		c0.717,3.608,2.625,6.237,5.233,7.212c2.036,0.769,4.118,0.376,5.343-0.976c0.826-0.911,1.205-2.174,1.067-3.569
		c-0.671-5.086-6.374-7.258-8.8-7.957c-0.354-0.098-0.713-0.191-1.078-0.276c0.354-1.442,0.812-2.542,0.999-2.961
		c0.667-1.382,1.454-2.641,2.34-3.742c0.05-0.035,0.097-0.092,0.129-0.146c0.011-0.009,0.021-0.018,0.03-0.026l0.361-0.041
		c0.021-0.002,0.039-0.006,0.059-0.011c0.162-0.025,0.331-0.042,0.554-0.065l0.137-0.01c0.039,0,0.062-0.003,0.1-0.014
		c0.164-0.018,0.319-0.028,0.462-0.038l0.316-0.023c2.658-0.202,5.23,0.133,8.189,0.995c5.624,1.667,10.146,4.566,14.518,7.369
		c0.091,0.06,9.336,5.986,15.16,8.582c4.947,2.138,10.064,3.396,15.645,3.848c1.411,0.111,2.84,0.168,4.24,0.168
		c6.717,0,12.248-1.244,15.578-3.507c1.606-1.12,2.768-2.439,3.451-3.928c0.293-0.669,0.52-1.427,0.606-2.033
		c0.396-3.075-0.965-4.88-2.565-6.334c0.633-1.215,0.598-2.583-0.09-3.934c-0.025-0.077-0.062-0.14-0.096-0.191
		c-0.004-0.008-0.008-0.016-0.011-0.022c-0.062-0.126-0.134-0.243-0.207-0.355c-0.015-0.031-0.036-0.066-0.063-0.101
		c-0.83-1.227-2.286-2.264-3.942-2.794c-0.175-0.06-0.354-0.119-0.542-0.17c1.387-0.984,2.759-1.43,4.354-1.43
		c2.959,0,4.798,1.814,6.745,3.736c0.356,0.347,0.727,0.705,1.104,1.061c3.072,2.721,6.969,5.502,12.572,5.502
		c2.868,0,5.762-1.169,7.535-3.024c0.232,0.02,0.5,0.021,0.742,0.021c3.479,0,6.494-2.286,8.73-4.275
		c2.084-1.835,4.61-3.71,7.551-3.71c2.491,0,4.369,1.201,4.369,2.795c0,1.723-2.126,2.79-4.096,2.79
		c-1.834,0-2.434-0.717-2.949-2.116c-0.352-1.047-1.246-1.129-1.512-1.129c-0.119,0-0.226,0.001-0.309,0.012
		c-0.141,0.017-0.262,0.105-0.318,0.235c-0.109,0.246-0.24,0.625-0.24,1.034c0,1.527,2.099,3.164,5.223,3.164
		c3.034,0,5.41-1.753,5.41-3.99C306.764,110.11,304.314,108.357,301.186,108.357 M278.088,108.64c2.934,0,6.053,1.667,6.053,4.755
		c0,1.045-0.267,1.93-0.838,2.777c-1.125-0.186-2.347-0.625-3.253-1.168c0.568-0.639,0.856-1.327,0.856-2.052
		c0-1.176-0.861-2.169-1.88-2.169c-0.999,0-1.812,0.974-1.812,2.169c0,0.717,0.344,1.436,1.001,2.094
		c-0.654,0.399-1.463,0.603-2.407,0.603c-1.994,0-3.389-1.292-3.389-3.14C272.42,109.836,275.268,108.64,278.088,108.64
		 M279.026,111.978c0.367,0,0.677,0.447,0.677,0.975c0,0.496-0.191,0.963-0.553,1.372c-0.492-0.478-0.74-0.938-0.74-1.372
		C278.41,112.406,278.681,111.978,279.026,111.978 M244.693,133.507c-2.277,0.171-3.998,0.171-6.244,0
		c-4.723-0.366-9.713-1.588-15.254-3.735c-4.174-1.621-7.891-3.62-11.285-5.54c-0.02-0.01-0.039-0.02-0.061-0.026
		c-0.488-0.275-0.973-0.555-1.456-0.832c-0.461-0.267-0.921-0.53-1.384-0.791c-5.176-2.903-11.297-6.127-11.434-6.194
		c-1.74-0.828-3.268-1.459-4.673-1.931c-1.804-0.603-5.455-1.612-9.63-1.612c-0.66,0-1.313,0.027-1.964,0.078
		c0.089-0.076,0.173-0.147,0.247-0.21l0.08-0.068c0.003-0.002,0.074-0.063,0.078-0.064l0.051-0.046
		c0.031-0.016,0.066-0.038,0.103-0.071c0.001-0.001,0.003-0.003,0.005-0.004c1.669-1.168,3.703-1.888,6.047-2.136
		c2.354-0.245,4.753,0.028,7.297,0.828c1.787,0.615,4.553,1.892,8.209,3.785c0.096,0.055,9.661,5.453,12.852,7.107l0.84,0.444
		c0.585,0.311,1.17,0.619,1.779,0.949l1.109,0.524c1.429,0.677,2.906,1.378,4.459,2.02c0.207,0.094,5.105,2.288,9.66,2.288
		c3.619,0,5.98-1.368,7.023-4.066c1.459,0.013,3.041-0.018,4.999-0.095c0.263,0.808,0.969,2.166,2.81,2.705
		c1.117,0.293,2.274,0.198,3.219-0.295c1.568-0.855,1.866-2.447,1.879-2.514c0.033-0.195-0.078-0.386-0.266-0.449
		c-0.188-0.063-0.392,0.019-0.484,0.194l-0.063,0.122c-0.061,0.117-0.118,0.231-0.173,0.324c-0.466,0.695-1.303,1.523-2.646,1.523
		c-0.349,0-0.718-0.057-1.077-0.162c-0.375-0.134-0.741-0.35-1.027-0.593c-0.262-0.279-0.465-0.623-0.598-1.01
		c2.571-0.478,4.396-1.044,5.867-1.815c0.01-0.004,0.019-0.008,0.027-0.012c0.063-0.027,1.43-0.636,2.473-1.824
		c1.563,1.302,2.236,2.86,2.059,4.749c-0.352,3.426-3.188,5.404-5.506,6.461C250.381,132.539,247.336,133.303,244.693,133.507
		 M219.828,110.04c3.354,0,8.98,1.916,13.367,4.55l0.194,0.124c0.183,0.117,0.367,0.234,0.54,0.354
		c0.064,0.045,0.127,0.078,0.126,0.072l0.509,0.344c0.086,0.057,0.172,0.112,0.254,0.173c1.897,1.363,4.984,4.021,5.048,6.941
		c-0.505-0.055-0.965-0.111-1.38-0.167c-2.979-0.473-5.98-1.143-8.666-1.932c-1.269-0.429-12.414-4.302-12.811-8.563
		c-0.005-0.034-0.004-0.07-0.004-0.121c0.018-0.557,0.196-0.873,0.305-1.032C217.73,110.297,218.6,110.04,219.828,110.04
		 M249.439,122.278c-0.588,0.136-1.22,0.245-1.885,0.327c0.099-1.413,1.039-2.962,3.037-3.537c0.551-0.142,1.138-0.218,1.697-0.218
		c1.012,0,1.903,0.238,2.556,0.677C253.75,120.854,252.021,121.731,249.439,122.278 M180.951,124.343
		c0.059,0.049,0.112,0.071,0.125,0.071c0.624,0.428,1.174,0.886,1.681,1.399c0.014,0.021,0.029,0.042,0.047,0.061
		c0.286,0.304,0.522,0.559,0.71,0.816c0.04,0.064,0.09,0.131,0.193,0.268c0.069,0.101,0.131,0.188,0.205,0.321
		c0.686,1.073,1.405,2.662,0.934,4.142c-0.043,0.146-0.477,1.432-2.256,1.662c-0.215,0.022-0.475,0.022-0.702,0
		c-2.348-0.275-4.194-3.153-4.213-3.184c-1.577-2.483-1.622-5.346-1.513-6.804c0.019-0.125,0.035-0.238,0.045-0.34
		c0.012-0.077,0.027-0.206,0.043-0.336c0.762,0.143,2.528,0.573,4.368,1.714c0.073,0.043,0.142,0.088,0.212,0.132L180.951,124.343z
		 M164.295,130.791l-0.086,0.112c-1.17,1.346-2.412,2.027-3.694,2.027c-0.638,0-1.138-0.171-1.424-0.305
		c-0.051-0.027-0.104-0.056-0.176-0.091c-0.007-0.004-0.014-0.009-0.022-0.013c-0.659-0.378-1.057-0.882-1.216-1.543
		c-0.406-1.691,0.94-3.776,0.963-3.812c0.08-0.135,0.17-0.258,0.279-0.392c1.138-1.526,3.368-3.51,7.567-4.372
		c0.298,1.926,0.124,3.761-0.517,5.451c-0.257,0.607-0.568,1.226-0.984,1.963c-0.077,0.105-0.153,0.214-0.217,0.319
		c-0.076,0.119-0.156,0.236-0.278,0.39C164.432,130.618,164.364,130.705,164.295,130.791 M168.91,116.879l1.127,0.913
		c0.024,0.029,0.049,0.056,0.068,0.071l0.328,0.271c0.266,0.223,0.57,0.473,0.651,0.521c0.055,0.027,0.126,0.043,0.188,0.043
		c0.231,0,0.411-0.146,1.083-0.771l0.215-0.199c0.054-0.047,0.104-0.093,0.201-0.159c0.287-0.228,2.132-1.541,4.047-2.315
		c0.055-0.021,0.11-0.045,0.172-0.059l-0.041,0.065c-0.068,0.091-1.624,2.206-2.273,5.551c-1.303-0.199-2.603-0.3-3.87-0.3
		c-0.983,0-1.962,0.06-2.913,0.18c-0.358-2.042-0.988-3.851-1.877-5.396C166.998,115.665,167.94,116.183,168.91,116.879
		 M136.883,120.555c-0.787,0.442-1.56,0.896-2.332,1.349c-1.13,0.664-2.3,1.352-3.479,1.976l-0.647,0.342
		c-3.679,1.939-7.484,3.947-11.715,5.5c-0.76,0.278-1.557,0.503-2.401,0.74c-0.36,0.101-0.722,0.204-1.084,0.311
		c-3.013,0.885-7.04,1.93-11.471,2.151c-4.604,0.23-8.387-0.29-12.159-1.65c-0.182-0.073-0.362-0.148-0.558-0.234
		c-0.036-0.018-0.073-0.026-0.111-0.03c-0.523-0.214-2.942-1.272-4.483-3.138c-0.411-0.515-0.735-1.071-0.961-1.649
		c-0.065-0.175-1.502-4.211,1.679-6.617c0.847,0.878,1.832,1.602,2.926,2.146c0.072,0.041,1.778,1.006,5.244,1.555
		c-0.026,0.089-0.057,0.18-0.093,0.271c-0.27,0.616-0.761,1.071-1.523,1.373c-0.066,0.021-0.129,0.04-0.133,0.047
		c-0.447,0.099-0.896,0.115-1.322,0.045c-0.017-0.003-0.061-0.005-0.088-0.006c-0.043-0.012-0.105-0.025-0.127-0.029
		c-0.011-0.004-0.097-0.021-0.108-0.024c-0.317-0.076-0.608-0.191-0.866-0.344c-0.022-0.014-0.048-0.025-0.074-0.034L91,124.594
		c-0.247-0.146-0.471-0.327-0.657-0.53c-0.39-0.448-0.537-0.873-0.539-0.878c-0.064-0.188-0.256-0.298-0.456-0.264
		c-0.197,0.039-0.335,0.217-0.322,0.416c0.096,1.561,1.339,2.715,3.231,2.946c0.657,0.077,1.233,0.021,1.746-0.138
		c0.048-0.01,0.121-0.029,0.159-0.052c0.015-0.003,0.031-0.007,0.045-0.011c0.051-0.01,0.098-0.027,0.142-0.054
		c0.312-0.116,0.613-0.274,0.899-0.473c0.937-0.666,1.384-1.573,1.567-2.056c1.573,0.169,3.242,0.221,5.107,0.145
		c0.432,1.099,0.991,1.893,1.746,2.48c1.235,0.961,3.017,1.447,5.297,1.447c3.799,0,7.637-1.315,8.725-1.72
		c3.125-1.172,5.959-2.647,8.7-4.075c0.87-0.453,1.734-0.902,2.6-1.339c0.68-0.345,1.376-0.747,2.083-1.155l0.597-0.343
		c2.624-1.555,5.398-3.071,8.004-4.479c3.675-1.96,7.641-3.906,12.209-4.287c0.055-0.003,0.104-0.005,0.148-0.011h0.002
		c1.765-0.122,3.264-0.063,4.583,0.166c0.003,0,0.118,0.015,0.121,0.015l0.235,0.049c0.251,0.052,0.49,0.102,0.715,0.163
		c1.316,0.385,2.576,1.161,3.759,2.313c-1.544-0.13-3.135-0.135-4.604-0.017c-5.546,0.427-10.209,2.693-13.956,4.514
		C140.846,118.353,138.961,119.394,136.883,120.555 M95.509,121.491l0.012,0.189c0.005,0.078,0.01,0.16,0.013,0.253
		c-0.86-0.089-1.733-0.251-2.577-0.478c-0.245-0.077-0.486-0.149-0.724-0.217c-0.113-0.029-0.2-0.061-0.313-0.104
		c-0.683-0.235-1.272-0.491-1.795-0.782c-0.718-0.411-1.318-0.894-1.788-1.44c0.102-0.049,0.208-0.095,0.319-0.138
		c0.477-0.193,1.444-0.518,2.562-0.518c0.503,0,0.989,0.064,1.456,0.197c0.223,0.058,0.61,0.199,1.009,0.418
		C94.284,119.24,95.321,120.072,95.509,121.491 M118.85,117.919c-0.022,0.006-0.044,0.015-0.065,0.024
		c-0.058,0.028-0.114,0.054-0.182,0.081c-0.028,0.012-0.054,0.026-0.078,0.043l-0.045,0.019c-0.806,0.373-1.632,0.715-2.523,1.045
		c-2.294,0.858-5.082,1.595-8.286,2.189c-1.074,0.198-2.729,0.466-4.653,0.645c0.063-2.075,1.33-3.521,2.532-4.723
		c1.24-1.245,2.874-2.27,4.455-3.261l0.231-0.145c0.725-0.454,1.497-0.88,2.36-1.301c2.888-1.403,7.29-3.043,10.196-3.043
		c1.507,0,2.41,0.438,2.686,1.3C126.475,113.906,120.475,117.115,118.85,117.919 M67.523,115.059c-0.955,0-1.767-0.207-2.409-0.608
		c0.66-0.648,1.007-1.369,1.007-2.094c0-1.191-0.817-2.162-1.821-2.162c-1.033,0-1.873,0.971-1.873,2.162
		c0,0.733,0.291,1.436,0.845,2.045c-0.915,0.56-2.104,0.991-3.245,1.176c-0.556-0.816-0.815-1.704-0.815-2.783
		c0-3.081,3.111-4.744,6.039-4.744c2.821,0,5.669,1.196,5.669,3.868C70.92,113.768,69.523,115.059,67.523,115.059 M64.3,111.393
		c0.35,0,0.625,0.424,0.625,0.964c0,0.436-0.252,0.896-0.744,1.365c-0.375-0.423-0.565-0.881-0.565-1.365
		C63.616,111.835,63.929,111.393,64.3,111.393"/>
	<path clip-path="url(#SVGID_2_)" fill="#231F20" d="M68.803,68.32c5.174,0,9.479,4.03,9.479,11.73
		c-0.135,7.09-4.52,12.613-11.584,12.613c-4.449,0-9.045-4.063-9.045-11.798C57.653,73.487,62.396,68.32,68.803,68.32
		 M68.405,90.531c3.441,0,6.002-4.171,6.002-9.272c0-5.877-3.174-10.734-6.839-10.734c-3.468,0-6.067,4.135-6.067,9.204
		C61.501,85.256,64.528,90.531,68.405,90.531"/>
	<path clip-path="url(#SVGID_2_)" fill="#231F20" d="M138.202,92.632c-1.749-0.32-2.391-1.925-2.605-2.716l-5.883-14.431
		c-0.254-0.642-0.575-1.929-0.599-2.074c0.024,0.508,0.059,1.752,0.059,2.353c-0.059,4.285-0.14,11.125-0.249,14.586
		c0,0.64,0.036,1.425,0.144,1.856h-2.597l0.071-0.571c0.429-7.882,0.741-18.004,0.779-20.96c-0.498-0.929-0.85-1.292-0.957-1.356
		l0.244-0.609c0.607-0.214,1.462-0.462,2.46-0.462c0.86,0,1.746,0.176,2.242,0.528c0.93,3.679,6.249,16.549,7.85,19.935
		c6.641-16.972,7.1-18.146,7.31-18.723c0.534-1.348,2.502-1.385,4.779-1.595c-0.118,1.88-0.038,2.208-0.118,5.837
		c-0.098,5.422,0.08,11.698,0.218,15.871c0.042,0.636,0.11,1.534,0.262,2.105h-3.931l0.029-2.147
		c0.117-6.41-0.059-11.195-0.125-14.5c0-0.608-0.088-1.747-0.088-2.148l-0.746,2.317l-6.092,14.188l-0.965,3.032L138.202,92.632z"/>
	<path clip-path="url(#SVGID_2_)" fill="#231F20" d="M196.012,89.782V73.321c0-2.826-0.532-3.368-0.922-3.967l0.257-0.613
		l6.302-0.172c4.712-0.148,6.87,2.572,6.87,5.098c0,2.172-1.37,3.92-3.449,5.135c2.671,0.784,5.021,2.566,5.021,6.202
		c0,4.382-3.304,7.201-8.479,7.201h-5.632C196.051,91.029,196.012,89.782,196.012,89.782 M199.58,79.974
		c-0.032,3.857-0.032,7.735,0.076,10.518h2.282c3.553,0,4.993-2.177,4.993-4.317c0-4.026-2.568-5.993-5.855-6.125L199.58,79.974z
		 M203.896,78.556c0.706-0.689,1.595-1.926,1.595-3.896c0-2.633-1.777-4.165-3.985-4.128l-1.747,0.033c0,0.956,0,2.274-0.031,3.811
		c-0.041,1.279-0.106,2.608-0.106,3.956h1.885C202.254,78.332,203.074,78.416,203.896,78.556"/>
	<path clip-path="url(#SVGID_2_)" fill="#231F20" d="M260.925,92.205v-0.57c0-3.106,0.09-6.163,0.04-8.913
		c0-6.025,0.32-11.763-0.972-13.368l0.26-0.613c6.567-0.172,6.671-0.172,6.817-0.172c3.561,0,7.878,1.419,7.878,7.234
		c0,3.17-2.005,5.706-4.93,6.807c0.851,0.43,7.201,8.843,8.202,9.595h-4.813c-1.286-2.601-4.734-6.348-7.021-8.919
		c-0.639,0-1.249-0.066-1.9-0.214c0.079,3.605,0.193,8.035,0.336,9.133H260.925z M271.77,76.597c0-4.61-3.011-6.138-5.237-6.065
		l-1.934,0.068c-0.113,1.285-0.113,6.314-0.113,9.514v1.07c0.509,0.253,1.104,0.325,2.245,0.325
		C269.491,81.509,271.77,79.62,271.77,76.597"/>
	<path clip-path="url(#SVGID_2_)" fill="#231F20" d="M295.471,92.206v-0.57c0-2.636,0.031-4.636,0.031-6.1
		c0-2.275,0-3.456-0.031-4.059c-0.2-0.219-0.4-0.508-0.742-1.111l-3.436-5.99c-2.024-3.597-2.207-4.529-3.493-5.023l0.254-0.612
		c0.606-0.281,1.566-0.494,2.489-0.494c0.858,0,1.673,0.176,2.104,0.642c1.144,2.817,4.02,8.272,5.175,10.124
		c0,0,0.214-0.64,0.607-1.323l2.941-5.235c0.599-1.038,0.663-2.14,0.05-3.102l0.251-0.612c0.689-0.318,1.421-0.494,2.001-0.494
		c0.566,0,1.247,0.176,1.879,0.494c0,0.866-1.206,3.568-2.054,4.889l-4.394,7.056c0,1.394-0.038,3.387-0.038,5.386
		c0,2.38,0.085,4.74,0.281,6.134H295.471z"/>
	<path clip-path="url(#SVGID_2_)" fill="#231F20" d="M324.538,89.063c0-0.391,0.125-0.783,0.399-1.175
		c0.286,1.03,3.05,2.286,5.301,2.286c2.104,0,4.465-0.715,4.465-3.284c0-4.775-10.064-5.775-10.064-12.298
		c0-3.107,2.25-6.382,6.584-6.382c2.939,0,4.646,1.036,5.615,1.607c0.245,0.859,0.289,2.989-0.608,3.89l-0.676-0.151
		c-0.826-2.525-3.322-3.42-4.705-3.42c-1.604,0-3.471,0.962-3.471,3.028c0,4.675,10.696,5.532,10.696,12.693
		c0,3.707-3.091,6.807-7.699,6.807C327.287,92.663,324.538,90.916,324.538,89.063"/>
</g>
</svg>
